<svg xmlns="http://www.w3.org/2000/svg" viewBox="0 0 32 32" width="32" height="32"><title>calendar grid 58</title><g class="nc-icon-wrapper" fill="#111111"><path d="M30.667 2.667h-5.334V0h-2.666v2.667h-5.334V0h-2.666v2.667H9.333V0H6.667v2.667H1.333C.597 2.667 0 3.264 0 4v26.667C0 31.403.597 32 1.333 32h29.334c.736 0 1.333-.597 1.333-1.333V4c0-.736-.597-1.333-1.333-1.333zm-1.334 26.666H2.667V10.667h26.666v18.666zm-24-14.666h5.334v4H5.333v-4zm8 0h5.334v4h-5.334v-4zm-8 6.666h5.334v4H5.333v-4zm8 0h5.334v4h-5.334v-4zm8-6.666h5.334v4h-5.334v-4z" fill="#111111"/></g></svg>