<svg width="1027" height="481" viewBox="0 0 1027 481" fill="none" xmlns="http://www.w3.org/2000/svg">
<path d="M27.2 315C27.2 315 -9.79999 245.27 45.07 188.31C140 89.77 91.7 0.149994 91.7 0.149994C91.7 0.149994 116.21 59.28 61.7 120.21C-51.83 247.14 27.2 315 27.2 315Z" fill="#3D41B1" fill-opacity="0.87"/>
<path d="M186.07 480.43C186.07 480.43 149.07 410.7 203.94 353.74C298.85 255.19 250.57 165.57 250.57 165.57C250.57 165.57 275.09 224.7 220.57 285.63C107 412.56 186.07 480.43 186.07 480.43Z" fill="#3D41B1" fill-opacity="0.87"/>
<path d="M102.12 405.34C102.12 405.34 65.12 335.6 120 278.65C214.91 180.1 166.62 90.48 166.62 90.48C166.62 90.48 191.14 149.6 136.62 210.48C23.1 337.46 102.12 405.34 102.12 405.34Z" fill="#3D41B1" fill-opacity="0.87"/>
<path d="M30.48 226.44C77.48 250.51 100.87 219.75 101.95 218.76C96.6413 219.539 91.2245 218.522 86.56 215.87C84.3436 214.545 82.2781 212.982 80.4 211.21C77.6611 208.53 75.4906 205.325 74.0181 201.788C72.5457 198.25 71.8015 194.452 71.83 190.62C71.6997 186.797 72.3678 182.989 73.7918 179.438C75.2157 175.888 77.3641 172.674 80.1 170C82.8288 167.24 86.086 165.059 89.677 163.586C93.2681 162.114 97.1191 161.38 101 161.43C104.867 161.28 108.723 161.938 112.322 163.362C115.92 164.786 119.182 166.945 121.9 169.7C126.713 174.507 129.67 179.767 130.77 185.48C131.871 191.165 131.666 197.026 130.17 202.62C128.67 208.34 126.87 214.19 123.1 219.01C89.62 261.78 35.1 236.53 26.79 231.67L30.48 226.44Z" fill="#3D41B1" fill-opacity="0.87"/>
<path d="M110.66 301.44C157.66 325.51 181.04 294.74 182.13 293.76C176.821 294.539 171.404 293.522 166.74 290.87C164.526 289.541 162.461 287.979 160.58 286.21C157.838 283.53 155.666 280.324 154.193 276.784C152.72 273.245 151.978 269.444 152.01 265.61C151.879 261.79 152.547 257.984 153.971 254.437C155.395 250.89 157.544 247.679 160.28 245.01C163.011 242.253 166.268 240.073 169.859 238.601C173.45 237.129 177.3 236.394 181.18 236.44C185.045 236.293 188.899 236.953 192.495 238.377C196.092 239.8 199.353 241.957 202.07 244.71C206.89 249.53 209.847 254.793 210.94 260.5C212.051 266.184 211.846 272.047 210.34 277.64C208.84 283.35 207.05 289.21 203.28 294.03C169.79 336.8 115.28 311.55 106.96 306.69L110.66 301.44Z" fill="#3D41B1" fill-opacity="0.87"/>
<path d="M328.214 184.764H337.762V203.575H337.882C338.826 201.926 339.845 200.412 340.879 198.898L350.502 184.719H362.387L348.283 202.885L363.077 227.376H351.866L341.374 208.956L337.777 213.452V227.376H328.214V184.764Z" fill="#3D41B1" fill-opacity="0.87"/>
<path d="M403.98 205.643C403.98 219.687 395.557 228.126 382.996 228.126C370.436 228.126 363.002 218.563 363.002 206.348C363.002 193.563 371.216 184 383.731 184C396.831 184 403.98 193.817 403.98 205.643ZM373.179 206.153C373.179 214.561 377.091 220.452 383.551 220.452C390.011 220.452 393.788 214.246 393.788 205.958C393.788 198.239 390.191 191.659 383.551 191.659C376.911 191.659 373.179 197.864 373.179 206.153Z" fill="#3D41B1" fill-opacity="0.87"/>
<path d="M410.305 227.421V184.764H421.561L430.405 200.397C433.02 205.121 435.342 210.002 437.359 215.011H437.494C436.937 209.077 436.682 203.119 436.73 197.16V184.764H445.588V227.421H435.471L426.358 210.934C423.611 206.083 421.144 201.079 418.968 195.946H418.714C419.028 201.641 419.148 207.652 419.148 214.606V227.466L410.305 227.421Z" fill="#3D41B1" fill-opacity="0.87"/>
<path d="M463.619 184.764V227.421H454.011V184.764H463.619Z" fill="#3D41B1" fill-opacity="0.87"/>
<path d="M471.967 227.421V184.764H483.223L492.081 200.397C494.685 205.128 497.007 210.007 499.036 215.011H499.156C498.604 209.077 498.354 203.119 498.407 197.16V184.764H507.25V227.421H497.118L488.02 210.934C485.262 206.086 482.79 201.082 480.615 195.946H480.361C480.675 201.641 480.81 207.652 480.81 214.606V227.466L471.967 227.421Z" fill="#3D41B1" fill-opacity="0.87"/>
<path d="M515.598 184.764H525.161V203.575H525.281C526.225 201.926 527.244 200.412 528.278 198.898L537.901 184.719H549.787L535.683 202.885L550.476 227.376H539.28L528.788 208.956L525.191 213.452V227.376H515.628L515.598 184.764Z" fill="#3D41B1" fill-opacity="0.87"/>
<path d="M554.508 184.764H564.115V219.238H581.052V227.346H554.508V184.764Z" fill="#3D41B1" fill-opacity="0.87"/>
<path d="M596.43 184.764V227.421H586.823V184.764H596.43Z" fill="#3D41B1" fill-opacity="0.87"/>
<path d="M613.127 184.764H622.735V211.743C622.735 223.899 616.919 228.141 607.627 228.141C605.227 228.145 602.839 227.802 600.537 227.121L601.616 219.343C603.206 219.842 604.866 220.084 606.532 220.062C610.579 220.062 613.112 218.218 613.112 211.638L613.127 184.764Z" fill="#3D41B1" fill-opacity="0.87"/>
<path d="M630.769 184.764H640.316V203.575H640.451C641.395 201.926 642.414 200.412 643.449 198.898L653.071 184.719H664.987L650.883 202.885L665.676 227.376H654.495L644.003 208.956L640.391 213.452V227.376H630.843L630.769 184.764Z" fill="#3D41B1" fill-opacity="0.87"/>
<path d="M694.964 209.375H679.286V219.507H696.792V227.421H669.663V184.764H695.908V192.678H679.286V201.536H694.964V209.375Z" fill="#3D41B1" fill-opacity="0.87"/>
<path d="M725.824 184.764V201.147H741.697V184.764H751.32V227.421H741.697V209.57H725.824V227.421H716.217V184.764H725.824Z" fill="#3D41B1" fill-opacity="0.87"/>
<path d="M769.665 216.465L766.668 227.421H756.745L769.71 184.764H782.36L795.625 227.421H785.133L781.896 216.465H769.665ZM780.472 209.255L777.819 200.262C777.055 197.729 776.32 194.567 775.676 192.034H775.541C774.911 194.567 774.282 197.789 773.577 200.262L771.059 209.255H780.472Z" fill="#3D41B1" fill-opacity="0.87"/>
<path d="M801.216 185.334C805.468 184.71 809.763 184.414 814.061 184.45C820.386 184.45 824.807 185.394 827.85 187.807C829.174 188.887 830.224 190.264 830.914 191.827C831.605 193.39 831.916 195.094 831.822 196.8C831.791 199.104 831.057 201.344 829.718 203.22C828.378 205.095 826.498 206.516 824.328 207.292V207.472C827.325 208.686 828.944 211.459 830.023 215.386C831.357 220.257 832.616 225.877 833.441 227.481H823.578C822.313 224.262 821.34 220.937 820.671 217.544C819.457 212.163 817.673 210.769 813.641 210.709H810.793V227.481H801.246L801.216 185.334ZM810.763 203.68H814.555C819.367 203.68 822.214 201.281 822.214 197.549C822.214 193.817 819.561 191.659 815.14 191.659C813.674 191.604 812.206 191.709 810.763 191.974V203.68Z" fill="#3D41B1" fill-opacity="0.87"/>
<path d="M874.823 211.069C874.644 205.943 874.449 199.753 874.449 193.548H874.329C872.935 198.988 871.166 205.059 869.518 210.035L864.332 226.717H856.837L852.341 210.23C850.947 205.179 849.568 199.093 848.489 193.533H848.354C848.174 199.288 847.919 205.868 847.665 211.189L846.84 227.391H837.847L840.575 184.734H853.405L857.587 198.973C858.981 203.904 860.24 209.225 861.184 214.216H861.334C862.473 209.285 863.927 203.725 865.381 198.913L869.877 184.734H882.512L884.791 227.391H875.438L874.823 211.069Z" fill="#3D41B1" fill-opacity="0.87"/>
<path d="M931.254 205.643C931.254 219.687 922.846 228.126 910.271 228.126C897.696 228.126 890.231 218.578 890.231 206.363C890.231 193.578 898.445 184.015 910.96 184.015C924.105 184 931.254 193.817 931.254 205.643ZM900.453 206.153C900.453 214.561 904.365 220.452 910.825 220.452C917.285 220.452 921.062 214.247 921.062 205.958C921.062 198.239 917.465 191.659 910.825 191.659C904.186 191.659 900.453 197.864 900.453 206.153Z" fill="#3D41B1" fill-opacity="0.87"/>
<path d="M937.58 227.421V184.764H948.836L957.694 200.397C960.297 205.128 962.619 210.007 964.649 215.011H964.753C964.197 209.077 963.941 203.119 963.989 197.16V184.764H972.847V227.421H962.73L953.632 210.934C950.874 206.086 948.402 201.082 946.228 195.946H945.973C946.288 201.641 946.423 207.652 946.423 214.606V227.466L937.58 227.421Z" fill="#3D41B1" fill-opacity="0.87"/>
<path d="M990.893 184.764V227.421H981.241V184.764H990.893Z" fill="#3D41B1" fill-opacity="0.87"/>
<path d="M1024.6 209.375H1008.91V219.507H1026.43V227.421H999.302V184.764H1025.55V192.678H1008.91V201.536H1024.6V209.375Z" fill="#3D41B1" fill-opacity="0.87"/>
<path d="M327 273.33C328.985 268.865 331.358 264.582 334.089 260.53L337.237 260.201C335.135 264.275 333.361 268.51 331.931 272.866L327 273.33Z" fill="#3D41B1" fill-opacity="0.87"/>
<path d="M342.093 261.535C345.095 261.04 348.134 260.804 351.176 260.83C357.246 260.83 361.893 262.554 364.666 265.701C367.052 268.427 368.278 271.977 368.083 275.594C368.132 278.811 367.503 282.003 366.234 284.96C364.966 287.917 363.089 290.573 360.724 292.755C356.497 296.323 351.191 297.836 344.237 297.836C341.293 297.848 338.351 297.703 335.423 297.402L342.093 261.535ZM340.474 293.894C342.037 294.063 343.609 294.133 345.181 294.104C350.966 294.104 355.178 292.426 358.221 289.293C361.563 285.61 363.346 280.775 363.197 275.804C363.197 269.314 360.049 264.487 350.966 264.487C349.299 264.47 347.634 264.601 345.99 264.877L340.474 293.894Z" fill="#3D41B1" fill-opacity="0.87"/>
<path d="M389.531 296.113C386.855 297.481 383.889 298.185 380.883 298.166C373.958 298.166 370.931 293.4 370.931 287.674C370.931 279.775 376.761 270.842 385.2 270.842C390.176 270.842 392.889 273.84 392.889 277.602C392.889 284.482 385.155 286.265 375.472 286.1C375.256 287.779 375.441 289.484 376.012 291.077C376.498 292.199 377.323 293.142 378.371 293.774C379.419 294.405 380.638 294.693 381.857 294.599C384.313 294.602 386.73 293.989 388.887 292.815L389.531 296.113ZM384.555 274.305C380.284 274.305 377.061 278.471 375.952 282.578C383.041 282.683 388.557 281.709 388.557 277.602C388.557 275.519 386.938 274.305 384.555 274.305Z" fill="#3D41B1" fill-opacity="0.87"/>
<path d="M412.523 297.567L408.027 261.1H412.523L415.221 284.512C415.656 288.259 415.866 290.357 415.926 292.74H416.091C417.263 289.732 418.599 286.79 420.093 283.927L431.664 261.145H436.64L417.44 297.612L412.523 297.567Z" fill="#3D41B1" fill-opacity="0.87"/>
<path d="M451.403 296.113C448.727 297.481 445.761 298.185 442.755 298.166C435.83 298.166 432.803 293.4 432.803 287.674C432.803 279.775 438.648 270.842 447.086 270.842C452.063 270.842 454.761 273.84 454.761 277.602C454.761 284.482 447.027 286.265 437.344 286.1C437.135 287.779 437.32 289.482 437.884 291.077C438.37 292.199 439.195 293.142 440.243 293.774C441.29 294.405 442.509 294.693 443.729 294.599C446.185 294.604 448.603 293.991 450.759 292.815L451.403 296.113ZM446.427 274.305C442.155 274.305 438.933 278.471 437.824 282.578C444.913 282.683 450.429 281.709 450.429 277.602C450.429 275.519 448.81 274.305 446.427 274.305Z" fill="#3D41B1" fill-opacity="0.87"/>
<path d="M457.084 297.567L460.276 280.69C460.876 277.272 461.31 273.81 461.58 271.382H465.522C465.312 273.226 465.087 275.054 464.818 277.063H464.983C466.661 273.495 469.479 270.782 472.986 270.782C473.423 270.793 473.858 270.828 474.29 270.887L473.421 275.384C473.009 275.32 472.594 275.285 472.177 275.279C468.28 275.279 464.818 279.985 463.679 286.101L461.52 297.627L457.084 297.567Z" fill="#3D41B1" fill-opacity="0.87"/>
<path d="M492.786 296.113C490.105 297.483 487.133 298.187 484.123 298.166C477.198 298.166 474.17 293.4 474.17 287.674C474.17 279.775 480.016 270.842 488.454 270.842C493.43 270.842 496.128 273.84 496.128 277.602C496.128 284.482 488.394 286.265 478.727 286.101C478.51 287.779 478.695 289.484 479.266 291.077C479.75 292.198 480.572 293.14 481.617 293.772C482.663 294.403 483.879 294.692 485.097 294.599C487.553 294.606 489.971 293.993 492.126 292.815L492.786 296.113ZM487.81 274.305C483.538 274.305 480.316 278.471 479.207 282.578C486.296 282.683 491.812 281.709 491.812 277.602C491.812 275.519 490.193 274.305 487.81 274.305Z" fill="#3D41B1" fill-opacity="0.87"/>
<path d="M498.466 297.567L501.929 279.011C502.513 276.013 502.903 273.54 503.173 271.382H507.175L506.515 276.523H506.635C507.621 274.816 509.03 273.392 510.726 272.387C512.421 271.381 514.347 270.829 516.318 270.782C519.45 270.782 522.957 272.566 522.957 278.037C522.919 279.457 522.758 280.871 522.478 282.263L519.6 297.567H515.104L517.966 282.413C518.164 281.305 518.274 280.182 518.296 279.056C518.296 276.463 517.277 274.559 514.189 274.559C511.102 274.559 506.455 278.412 505.196 284.901L502.828 297.612L498.466 297.567Z" fill="#3D41B1" fill-opacity="0.87"/>
<path d="M527.289 297.567L532.325 271.382H536.822L531.846 297.567H527.289ZM533.09 264.128C533.089 263.345 533.395 262.594 533.941 262.034C534.487 261.474 535.23 261.15 536.012 261.13C536.379 261.121 536.744 261.188 537.084 261.328C537.423 261.468 537.73 261.677 537.984 261.943C538.238 262.208 538.434 262.523 538.559 262.869C538.684 263.214 538.735 263.581 538.71 263.948C538.71 264.349 538.63 264.746 538.474 265.116C538.317 265.486 538.089 265.82 537.801 266.1C537.513 266.379 537.171 266.598 536.797 266.744C536.423 266.889 536.024 266.957 535.623 266.945C535.265 266.945 534.912 266.87 534.586 266.725C534.259 266.579 533.967 266.367 533.728 266.101C533.489 265.835 533.309 265.522 533.199 265.182C533.089 264.842 533.052 264.483 533.09 264.128Z" fill="#3D41B1" fill-opacity="0.87"/>
<path d="M539.954 303.517C542.057 304.712 544.446 305.313 546.864 305.256C551.36 305.256 554.763 303.037 556.277 295.948L557.146 291.991H557.071C556.193 293.647 554.887 295.037 553.29 296.018C551.693 296.998 549.862 297.533 547.988 297.567C542.682 297.567 539.984 293.07 539.984 288.484C539.984 279.611 546.474 270.782 556.576 270.782C559.485 270.822 562.355 271.449 565.015 272.626L560.968 294.269C559.934 299.845 558.42 303.622 555.722 306.005C553.098 307.991 549.868 309.008 546.579 308.883C543.849 308.975 541.143 308.339 538.74 307.039L539.954 303.517ZM560.069 275.279C558.697 274.704 557.224 274.409 555.737 274.41C549.202 274.41 544.646 281.274 544.646 287.719C544.646 290.717 545.68 293.999 549.682 293.999C553.684 293.999 557.416 289.128 558.39 284.047L560.069 275.279Z" fill="#3D41B1" fill-opacity="0.87"/>
<path d="M595.816 259.152L590.045 289.233C589.53 291.989 589.169 294.771 588.966 297.567H584.844L585.549 292.381C583.166 296.113 579.868 298.166 576.136 298.166C571.055 298.166 568.297 293.999 568.297 288.634C568.297 279.326 575.222 270.782 584.47 270.782C586.064 270.772 587.644 271.083 589.116 271.697L591.439 259.152H595.816ZM588.322 275.489C587.047 274.682 585.557 274.284 584.05 274.35C577.77 274.35 572.899 281.064 572.899 288.049C572.899 291.182 573.978 294.479 577.83 294.479C581.292 294.479 585.444 290.537 586.583 284.632L588.322 275.489Z" fill="#3D41B1" fill-opacity="0.87"/>
<path d="M615.286 296.113C612.61 297.483 609.643 298.187 606.637 298.166C599.713 298.166 596.685 293.4 596.685 287.674C596.685 279.775 602.53 270.842 610.969 270.842C615.945 270.842 618.643 273.84 618.643 277.602C618.643 284.482 610.909 286.265 601.226 286.101C601.025 287.779 601.209 289.481 601.766 291.077C602.254 292.198 603.079 293.139 604.127 293.771C605.174 294.402 606.392 294.691 607.612 294.599C610.068 294.606 612.486 293.993 614.641 292.815L615.286 296.113ZM610.309 274.305C606.038 274.305 602.815 278.471 601.721 282.578C608.796 282.683 614.311 281.709 614.311 277.602C614.311 275.519 612.693 274.305 610.309 274.305Z" fill="#3D41B1" fill-opacity="0.87"/>
<path d="M638.278 297.567L633.781 261.1H638.278L641.006 284.512C641.378 287.241 641.613 289.987 641.71 292.74H641.875C643.053 289.735 644.389 286.793 645.877 283.927L657.463 261.145H662.424L643.224 297.612L638.278 297.567Z" fill="#3D41B1" fill-opacity="0.87"/>
<path d="M659.531 297.567L662.724 280.69C663.323 277.272 663.758 273.81 664.028 271.382H667.984C667.775 273.226 667.55 275.054 667.28 277.063H667.445C669.124 273.495 671.941 270.782 675.449 270.782C675.885 270.793 676.32 270.828 676.753 270.887L675.883 275.384C675.472 275.32 675.056 275.285 674.639 275.279C670.742 275.279 667.28 279.985 666.141 286.101L663.983 297.627L659.531 297.567Z" fill="#3D41B1" fill-opacity="0.87"/>
<path d="M676.678 297.567L681.714 271.382H686.21L681.234 297.567H676.678ZM682.523 264.128C682.523 263.345 682.828 262.594 683.375 262.034C683.921 261.474 684.664 261.15 685.446 261.13C685.813 261.121 686.178 261.188 686.517 261.328C686.857 261.468 687.164 261.677 687.417 261.943C687.671 262.208 687.867 262.523 687.992 262.869C688.117 263.214 688.169 263.581 688.144 263.948C688.144 264.349 688.064 264.746 687.907 265.116C687.751 265.486 687.522 265.82 687.234 266.1C686.946 266.379 686.605 266.598 686.231 266.744C685.857 266.889 685.457 266.957 685.056 266.945C684.699 266.945 684.346 266.87 684.019 266.725C683.693 266.579 683.401 266.367 683.162 266.101C682.923 265.835 682.743 265.522 682.633 265.182C682.523 264.842 682.485 264.483 682.523 264.128Z" fill="#3D41B1" fill-opacity="0.87"/>
<path d="M707.943 296.113C705.267 297.481 702.301 298.185 699.295 298.166C692.371 298.166 689.343 293.4 689.343 287.674C689.343 279.775 695.173 270.842 703.612 270.842C708.588 270.842 711.301 273.84 711.301 277.602C711.301 284.482 703.567 286.265 693.884 286.1C693.668 287.779 693.853 289.484 694.424 291.077C694.91 292.199 695.735 293.142 696.783 293.774C697.831 294.405 699.05 294.693 700.269 294.599C702.725 294.602 705.142 293.989 707.299 292.815L707.943 296.113ZM702.967 274.305C698.696 274.305 695.473 278.471 694.364 282.578C701.453 282.683 706.969 281.709 706.969 277.602C706.954 275.519 705.35 274.305 702.967 274.305Z" fill="#3D41B1" fill-opacity="0.87"/>
<path d="M713.624 297.567L717.086 279.011C717.671 276.013 718.06 273.54 718.33 271.382H722.332L721.688 276.523H721.793C722.779 274.816 724.188 273.392 725.883 272.387C727.579 271.381 729.504 270.829 731.475 270.782C734.608 270.782 738.115 272.566 738.115 278.037C738.076 279.457 737.916 280.871 737.635 282.263L734.638 297.567H730.141L733.019 282.413C733.204 281.303 733.309 280.181 733.334 279.056C733.334 276.463 732.314 274.559 729.227 274.559C726.139 274.559 721.493 278.412 720.309 284.901L717.926 297.612L713.624 297.567Z" fill="#3D41B1" fill-opacity="0.87"/>
<path d="M770.25 259.152L764.524 289.233C764.011 291.989 763.646 294.771 763.43 297.567H759.323L760.028 292.381H759.923C757.54 296.113 754.242 298.166 750.51 298.166C745.429 298.166 742.671 293.999 742.671 288.634C742.671 279.326 749.596 270.782 758.844 270.782C760.438 270.772 762.018 271.083 763.49 271.697L765.813 259.152H770.25ZM762.756 275.489C761.483 274.678 759.991 274.28 758.484 274.35C752.219 274.35 747.348 281.064 747.348 288.049C747.348 291.182 748.427 294.479 752.264 294.479C755.726 294.479 759.893 290.537 761.032 284.632L762.756 275.489Z" fill="#3D41B1" fill-opacity="0.87"/>
<path d="M789.72 296.113C787.043 297.481 784.077 298.185 781.071 298.166C774.147 298.166 771.119 293.4 771.119 287.674C771.119 279.775 776.965 270.842 785.388 270.842C790.379 270.842 793.077 273.84 793.077 277.602C793.077 284.482 785.343 286.265 775.661 286.1C775.451 287.779 775.636 289.482 776.2 291.077C776.687 292.199 777.511 293.142 778.559 293.774C779.607 294.405 780.826 294.693 782.046 294.599C784.501 294.604 786.919 293.991 789.075 292.815L789.72 296.113ZM784.744 274.305C780.472 274.305 777.249 278.471 776.14 282.578C783.23 282.683 788.745 281.709 788.745 277.602C788.745 275.519 787.127 274.305 784.744 274.305Z" fill="#3D41B1" fill-opacity="0.87"/>
<path d="M795.385 297.567L798.848 279.011C799.447 276.013 799.822 273.54 800.092 271.382H804.093L803.449 276.523H803.554C804.54 274.816 805.949 273.392 807.644 272.387C809.34 271.381 811.266 270.829 813.236 270.782C816.369 270.782 819.891 272.566 819.891 278.037C819.847 279.457 819.681 280.871 819.397 282.263L816.474 297.567H812.052L814.87 282.413C815.062 281.304 815.167 280.182 815.185 279.056C815.185 276.463 814.166 274.559 811.078 274.559C807.99 274.559 803.344 278.412 802.16 284.901L799.882 297.567H795.385Z" fill="#3D41B1" fill-opacity="0.87"/>
<path d="M834.355 260.126C832.37 264.615 829.998 268.923 827.265 273.001L824.133 273.33C826.205 269.244 827.973 265.011 829.424 260.665L834.355 260.126Z" fill="#3D41B1" fill-opacity="0.87"/>
<path d="M854.095 261.1L851.172 276.463H867.929L870.927 261.1H875.423L868.498 297.567H864.002L867.194 280.42H850.408L847.17 297.567H842.674L849.598 261.1H854.095Z" fill="#3D41B1" fill-opacity="0.87"/>
<path d="M895.297 296.113C892.622 297.483 889.655 298.187 886.649 298.166C879.725 298.166 876.697 293.4 876.697 287.674C876.697 279.775 882.542 270.842 890.981 270.842C895.957 270.842 898.655 273.84 898.655 277.602C898.655 284.482 890.921 286.265 881.238 286.101C881.037 287.779 881.221 289.481 881.778 291.077C882.264 292.199 883.089 293.142 884.137 293.774C885.185 294.405 886.404 294.693 887.623 294.599C890.08 294.606 892.498 293.993 894.653 292.815L895.297 296.113ZM890.321 274.305C886.05 274.305 882.827 278.471 881.733 282.578C888.808 282.683 894.323 281.709 894.323 277.602C894.308 275.519 892.704 274.305 890.321 274.305Z" fill="#3D41B1" fill-opacity="0.87"/>
<path d="M926.458 271.382L922.936 289.938C922.351 292.935 922.022 295.408 921.752 297.567H917.75L918.394 292.65H918.29C917.316 294.242 915.972 295.576 914.373 296.536C912.773 297.496 910.964 298.056 909.102 298.166C905.744 298.166 902.177 296.547 902.177 290.582C902.195 289.071 902.356 287.566 902.657 286.085L905.519 271.322H910.016L907.198 286.011C906.937 287.274 906.792 288.558 906.763 289.848C906.763 292.545 907.858 294.344 910.93 294.344C914.003 294.344 918.424 290.507 919.429 284.767L921.962 271.277L926.458 271.382Z" fill="#3D41B1" fill-opacity="0.87"/>
<path d="M929.651 293.025C931.359 294.027 933.292 294.584 935.271 294.644C938.269 294.644 940.247 292.695 940.247 290.372C940.247 288.319 939.333 287.075 936.575 285.561C933.578 283.882 931.869 281.544 931.869 278.846C931.869 274.35 935.811 270.782 941.327 270.782C943.233 270.726 945.121 271.176 946.797 272.086L945.553 275.489C944.177 274.724 942.631 274.316 941.057 274.305C938.344 274.305 936.395 275.983 936.395 278.247C936.395 280.15 937.64 281.334 940.023 282.638C942.945 284.257 944.894 286.58 944.894 289.503C944.894 295.019 940.397 298.106 934.942 298.106C932.632 298.155 930.358 297.536 928.392 296.323L929.651 293.025Z" fill="#3D41B1" fill-opacity="0.87"/>
<path d="M977.359 259.152L971.618 289.233C971.117 291.991 970.757 294.772 970.539 297.567H966.432L967.122 292.381H967.017C966.086 294.08 964.728 295.507 963.077 296.521C961.427 297.536 959.54 298.102 957.604 298.166C952.523 298.166 949.765 293.999 949.765 288.634C949.765 279.326 956.69 270.782 965.938 270.782C967.532 270.77 969.113 271.081 970.584 271.697L972.922 259.152H977.359ZM969.864 275.489C968.59 274.682 967.1 274.284 965.593 274.35C959.313 274.35 954.441 281.064 954.441 288.049C954.441 291.182 955.536 294.479 959.373 294.479C962.835 294.479 967.002 290.537 968.141 284.632L969.864 275.489Z" fill="#3D41B1" fill-opacity="0.87"/>
<path d="M996.828 296.113C994.147 297.483 991.176 298.187 988.165 298.166C981.24 298.166 978.213 293.4 978.213 287.674C978.213 279.775 984.058 270.842 992.497 270.842C997.473 270.842 1000.17 273.84 1000.17 277.602C1000.17 284.482 992.437 286.265 982.754 286.101C982.551 287.78 982.741 289.483 983.309 291.077C983.793 292.198 984.614 293.14 985.66 293.772C986.705 294.403 987.922 294.692 989.139 294.599C991.621 294.598 994.061 293.964 996.229 292.755L996.828 296.113ZM991.852 274.305C987.58 274.305 984.358 278.471 983.249 282.578C990.338 282.683 995.854 281.709 995.854 277.602C995.854 275.519 994.235 274.305 991.852 274.305Z" fill="#3D41B1" fill-opacity="0.87"/>
<path d="M1002.51 297.567L1005.97 279.011C1006.56 276.013 1006.93 273.54 1007.22 271.382H1011.22L1010.56 276.523H1010.66C1011.65 274.818 1013.06 273.395 1014.76 272.39C1016.45 271.385 1018.38 270.832 1020.35 270.782C1023.49 270.782 1027 272.566 1027 278.037C1026.96 279.457 1026.8 280.871 1026.52 282.263L1023.52 297.567H1019.03L1021.89 282.413C1022.09 281.305 1022.2 280.182 1022.22 279.056C1022.22 276.463 1021.18 274.559 1018.11 274.559C1015.04 274.559 1010.38 278.412 1009.12 284.901L1006.74 297.612L1002.51 297.567Z" fill="#3D41B1" fill-opacity="0.87"/>
</svg>
