<svg width="1918" height="481" viewBox="0 0 1918 481" fill="none" xmlns="http://www.w3.org/2000/svg">
<path d="M26.7675 314.85C26.7675 314.85 -10.2325 245.12 44.6375 188.16C139.568 89.62 91.2675 0 91.2675 0C91.2675 0 115.778 59.13 61.2675 120.06C-52.2625 246.99 26.7675 314.85 26.7675 314.85Z" fill="white" fill-opacity="0.87"/>
<path d="M185.638 480.28C185.638 480.28 148.638 410.55 203.508 353.59C298.418 255.04 250.138 165.42 250.138 165.42C250.138 165.42 274.658 224.55 220.138 285.48C106.568 412.41 185.638 480.28 185.638 480.28Z" fill="white" fill-opacity="0.87"/>
<path d="M101.688 405.19C101.688 405.19 64.6875 335.45 119.568 278.5C214.478 179.95 166.188 90.33 166.188 90.33C166.188 90.33 190.708 149.45 136.188 210.33C22.6675 337.31 101.688 405.19 101.688 405.19Z" fill="white" fill-opacity="0.87"/>
<path d="M30.0475 226.29C77.0475 250.36 100.438 219.6 101.518 218.61C96.2088 219.389 90.792 218.372 86.1275 215.72C83.9111 214.395 81.8456 212.832 79.9675 211.06C77.2287 208.38 75.0581 205.175 73.5857 201.638C72.1132 198.1 71.369 194.302 71.3975 190.47C71.2672 186.647 71.9354 182.839 73.3593 179.288C74.7832 175.738 76.9317 172.524 79.6675 169.85C82.3963 167.09 85.6535 164.909 89.2446 163.436C92.8356 161.964 96.6867 161.23 100.568 161.28C104.435 161.13 108.291 161.788 111.889 163.212C115.488 164.636 118.75 166.795 121.468 169.55C126.281 174.357 129.238 179.617 130.338 185.33C131.439 191.015 131.233 196.876 129.738 202.47C128.238 208.19 126.438 214.04 122.668 218.86C89.1875 261.63 34.6675 236.38 26.3575 231.52L30.0475 226.29Z" fill="white" fill-opacity="0.87"/>
<path d="M110.228 301.29C157.228 325.36 180.608 294.59 181.698 293.61C176.389 294.389 170.972 293.372 166.308 290.72C164.094 289.391 162.029 287.829 160.148 286.06C157.406 283.38 155.233 280.174 153.76 276.634C152.288 273.095 151.545 269.294 151.578 265.46C151.446 261.64 152.114 257.834 153.538 254.287C154.962 250.74 157.111 247.529 159.848 244.86C162.578 242.103 165.836 239.923 169.427 238.451C173.017 236.979 176.867 236.244 180.748 236.29C184.613 236.143 188.466 236.803 192.063 238.227C195.659 239.65 198.92 241.807 201.638 244.56C206.458 249.38 209.414 254.643 210.508 260.35C211.619 266.034 211.414 271.897 209.908 277.49C208.408 283.2 206.618 289.06 202.848 293.88C169.358 336.65 114.848 311.4 106.528 306.54L110.228 301.29Z" fill="white" fill-opacity="0.87"/>
<path d="M320.343 124.597H342.166V167.592H342.44C344.598 163.824 346.928 160.364 349.291 156.903L371.286 124.494H398.453L366.215 166.016L400.029 221.996H374.403L350.422 179.891L342.2 190.169V221.996H320.343V124.597Z" fill="white" fill-opacity="0.87"/>
<path d="M493.522 172.32C493.522 204.421 474.268 223.709 445.559 223.709C416.85 223.709 399.858 201.851 399.858 173.93C399.858 144.707 418.632 122.85 447.238 122.85C477.18 122.85 493.522 145.29 493.522 172.32ZM423.12 173.485C423.12 192.704 432.061 206.168 446.827 206.168C461.593 206.168 470.226 191.985 470.226 173.04C470.226 155.396 462.004 140.356 446.827 140.356C431.65 140.356 423.12 154.539 423.12 173.485Z" fill="white" fill-opacity="0.87"/>
<path d="M507.979 222.098V124.597H533.708L553.921 160.329C559.899 171.127 565.207 182.283 569.817 193.732H570.125C568.852 180.169 568.269 166.551 568.378 152.929V124.597H588.625V222.098H565.5L544.671 184.413C538.392 173.325 532.753 161.887 527.781 150.154H527.199C527.918 163.173 528.192 176.911 528.192 192.807V222.201L507.979 222.098Z" fill="white" fill-opacity="0.87"/>
<path d="M629.839 124.597V222.098H607.879V124.597H629.839Z" fill="white" fill-opacity="0.87"/>
<path d="M648.921 222.098V124.597H674.649L694.897 160.329C700.847 171.142 706.155 182.295 710.793 193.732H711.067C709.806 180.169 709.234 166.55 709.354 152.929V124.597H729.567V222.098H706.408L685.612 184.413C679.309 173.333 673.658 161.894 668.688 150.154H668.106C668.825 163.173 669.134 176.911 669.134 192.807V222.201L648.921 222.098Z" fill="white" fill-opacity="0.87"/>
<path d="M748.649 124.597H770.506V167.592H770.78C772.939 163.824 775.268 160.364 777.632 156.903L799.627 124.494H826.794L794.556 166.016L828.37 221.996H802.778L778.797 179.891L770.575 190.169V221.996H748.718L748.649 124.597Z" fill="white" fill-opacity="0.87"/>
<path d="M837.585 124.597H859.546V203.393H898.258V221.927H837.585V124.597Z" fill="white" fill-opacity="0.87"/>
<path d="M933.408 124.597V222.098H911.448V124.597H933.408Z" fill="white" fill-opacity="0.87"/>
<path d="M971.573 124.597H993.533V186.264C993.533 214.048 980.24 223.743 959 223.743C953.514 223.753 948.056 222.968 942.795 221.413L945.262 203.633C948.896 204.774 952.689 205.329 956.499 205.277C965.749 205.277 971.538 201.063 971.538 186.024L971.573 124.597Z" fill="white" fill-opacity="0.87"/>
<path d="M1011.9 124.597H1033.72V167.592H1034.03C1036.19 163.824 1038.51 160.364 1040.88 156.903L1062.87 124.494H1090.11L1057.87 166.016L1091.68 221.996H1066.13L1042.15 179.891L1033.89 190.169V221.996H1012.07L1011.9 124.597Z" fill="white" fill-opacity="0.87"/>
<path d="M1158.63 180.851H1122.79V204.01H1162.81V222.098H1100.8V124.597H1160.79V142.686H1122.79V162.933H1158.63V180.851Z" fill="white" fill-opacity="0.87"/>
<path d="M1229.17 124.597V162.042H1265.45V124.597H1287.44V222.098H1265.45V181.296H1229.17V222.098H1207.21V124.597H1229.17Z" fill="white" fill-opacity="0.87"/>
<path d="M1329.37 197.055L1322.52 222.098H1299.84L1329.48 124.597H1358.39L1388.71 222.098H1364.73L1357.33 197.055H1329.37ZM1354.07 180.576L1348.01 160.021C1346.26 154.231 1344.58 147.003 1343.11 141.213H1342.8C1341.36 147.003 1339.93 154.368 1338.32 160.021L1332.56 180.576H1354.07Z" fill="white" fill-opacity="0.87"/>
<path d="M1401.49 125.899C1411.21 124.473 1421.03 123.797 1430.85 123.878C1445.31 123.878 1455.41 126.036 1462.37 131.552C1465.39 134.02 1467.79 137.168 1469.37 140.741C1470.95 144.313 1471.66 148.208 1471.45 152.107C1471.38 157.374 1469.7 162.494 1466.64 166.78C1463.58 171.067 1459.28 174.314 1454.32 176.088V176.5C1461.17 179.274 1464.87 185.613 1467.34 194.588C1470.38 205.723 1473.26 218.57 1475.15 222.235H1452.6C1449.71 214.878 1447.49 207.277 1445.96 199.522C1443.18 187.223 1439.11 184.037 1429.89 183.9H1423.38V222.235H1401.56L1401.49 125.899ZM1423.31 167.832H1431.98C1442.98 167.832 1449.49 162.351 1449.49 153.82C1449.49 145.29 1443.42 140.356 1433.32 140.356C1429.97 140.229 1426.61 140.471 1423.31 141.076V167.832Z" fill="white" fill-opacity="0.87"/>
<path d="M1569.74 184.722C1569.32 173.005 1568.88 158.856 1568.88 144.673H1568.6C1565.42 157.109 1561.38 170.984 1557.61 182.358L1545.75 220.488H1528.62L1518.35 182.803C1515.16 171.258 1512.01 157.349 1509.54 144.639H1509.23C1508.82 157.794 1508.24 172.834 1507.66 184.996L1505.77 222.03H1485.22L1491.45 124.529H1520.78L1530.34 157.075C1533.52 168.346 1536.4 180.508 1538.56 191.916H1538.9C1541.51 180.645 1544.83 167.935 1548.15 156.938L1558.43 124.529H1587.31L1592.52 222.03H1571.14L1569.74 184.722Z" fill="white" fill-opacity="0.87"/>
<path d="M1698.72 172.32C1698.72 204.421 1679.5 223.709 1650.76 223.709C1622.01 223.709 1604.95 201.886 1604.95 173.964C1604.95 144.741 1623.73 122.884 1652.33 122.884C1682.38 122.85 1698.72 145.29 1698.72 172.32ZM1628.32 173.485C1628.32 192.704 1637.26 206.168 1652.03 206.168C1666.79 206.168 1675.42 191.985 1675.42 173.04C1675.42 155.396 1667.2 140.356 1652.03 140.356C1636.85 140.356 1628.32 154.54 1628.32 173.485V173.485Z" fill="white" fill-opacity="0.87"/>
<path d="M1713.18 222.098V124.597H1738.91L1759.15 160.329C1765.1 171.142 1770.41 182.295 1775.05 193.732H1775.29C1774.02 180.169 1773.43 166.551 1773.54 152.929V124.597H1793.79V222.098H1770.66L1749.87 184.413C1743.57 173.333 1737.92 161.894 1732.95 150.154H1732.36C1733.08 163.173 1733.39 176.911 1733.39 192.807V222.201L1713.18 222.098Z" fill="white" fill-opacity="0.87"/>
<path d="M1835.04 124.597V222.098H1812.97V124.597H1835.04Z" fill="white" fill-opacity="0.87"/>
<path d="M1912.09 180.851H1876.22V204.01H1916.27V222.098H1854.26V124.597H1914.24V142.686H1876.22V162.933H1912.09V180.851Z" fill="white" fill-opacity="0.87"/>
<path d="M317.568 327.034C322.105 316.827 327.528 307.038 333.772 297.777L340.966 297.023C336.162 306.336 332.107 316.016 328.839 325.972L317.568 327.034Z" fill="white" fill-opacity="0.87"/>
<path d="M352.066 300.072C358.928 298.941 365.874 298.402 372.827 298.462C386.702 298.462 397.322 302.402 403.66 309.596C409.115 315.825 411.918 323.939 411.471 332.207C411.585 339.561 410.145 346.856 407.246 353.615C404.348 360.374 400.056 366.446 394.65 371.434C384.989 379.587 372.862 383.047 356.965 383.047C350.238 383.075 343.513 382.743 336.821 382.054L352.066 300.072ZM348.366 374.037C351.938 374.423 355.531 374.583 359.124 374.517C372.348 374.517 381.974 370.68 388.929 363.52C396.568 355.101 400.645 344.049 400.303 332.687C400.303 317.852 393.109 306.821 372.348 306.821C368.537 306.782 364.731 307.08 360.974 307.712L348.366 374.037Z" fill="white" fill-opacity="0.87"/>
<path d="M460.496 379.108C454.379 382.235 447.599 383.845 440.729 383.801C424.901 383.801 417.981 372.907 417.981 359.82C417.981 341.765 431.308 321.347 450.595 321.347C461.969 321.347 468.17 328.199 468.17 336.798C468.17 352.523 450.493 356.599 428.361 356.223C427.866 360.058 428.289 363.956 429.595 367.597C430.706 370.163 432.591 372.318 434.986 373.761C437.382 375.204 440.168 375.864 442.956 375.647C448.568 375.656 454.093 374.254 459.023 371.571L460.496 379.108ZM449.122 329.261C439.358 329.261 431.993 338.785 429.458 348.172C445.662 348.412 458.269 346.185 458.269 336.798C458.269 332.036 454.569 329.261 449.122 329.261Z" fill="white" fill-opacity="0.87"/>
<path d="M513.05 382.431L502.772 299.078H513.05L519.216 352.591C520.21 361.156 520.689 365.952 520.827 371.399H521.203C523.883 364.523 526.936 357.798 530.351 351.255L556.798 299.181H568.172L524.287 382.533L513.05 382.431Z" fill="white" fill-opacity="0.87"/>
<path d="M601.918 379.108C595.8 382.235 589.02 383.845 582.15 383.801C566.322 383.801 559.402 372.907 559.402 359.82C559.402 341.765 572.763 321.347 592.051 321.347C603.425 321.347 609.592 328.199 609.592 336.798C609.592 352.523 591.914 356.599 569.783 356.223C569.304 360.058 569.727 363.953 571.016 367.597C572.128 370.163 574.012 372.318 576.408 373.761C578.803 375.204 581.589 375.864 584.377 375.647C589.99 375.66 595.516 374.258 600.444 371.571L601.918 379.108ZM590.544 329.261C580.78 329.261 573.414 338.785 570.879 348.172C587.083 348.412 599.691 346.185 599.691 336.798C599.691 332.036 595.991 329.261 590.544 329.261Z" fill="white" fill-opacity="0.87"/>
<path d="M614.902 382.431L622.199 343.855C623.569 336.044 624.563 328.13 625.179 322.58H634.19C633.71 326.794 633.196 330.974 632.579 335.564H632.956C636.793 327.411 643.234 321.21 651.251 321.21C652.248 321.235 653.243 321.314 654.231 321.45L652.244 331.727C651.303 331.582 650.353 331.502 649.401 331.488C640.493 331.488 632.579 342.245 629.976 356.223L625.042 382.568L614.902 382.431Z" fill="white" fill-opacity="0.87"/>
<path d="M696.507 379.108C690.379 382.239 683.587 383.849 676.705 383.801C660.877 383.801 653.957 372.907 653.957 359.82C653.957 341.765 667.318 321.347 686.606 321.347C697.98 321.347 704.147 328.199 704.147 336.798C704.147 352.523 686.469 356.599 664.372 356.223C663.877 360.058 664.3 363.956 665.605 367.597C666.711 370.16 668.589 372.314 670.979 373.757C673.368 375.201 676.149 375.861 678.932 375.647C684.546 375.665 690.073 374.262 694.999 371.571L696.507 379.108ZM685.133 329.261C675.369 329.261 668.003 338.785 665.468 348.172C681.673 348.412 694.28 346.185 694.28 336.798C694.28 332.036 690.58 329.261 685.133 329.261V329.261Z" fill="white" fill-opacity="0.87"/>
<path d="M709.491 382.431L717.405 340.018C718.741 333.166 719.632 327.513 720.248 322.58H729.395L727.888 334.331H728.162C730.417 330.43 733.636 327.174 737.512 324.876C741.388 322.579 745.789 321.316 750.293 321.21C757.454 321.21 765.47 325.287 765.47 337.791C765.382 341.037 765.015 344.269 764.374 347.452L757.796 382.431H747.518L754.062 347.795C754.513 345.26 754.765 342.694 754.816 340.121C754.816 334.194 752.486 329.843 745.429 329.843C738.371 329.843 727.751 338.648 724.873 353.482L719.46 382.533L709.491 382.431Z" fill="white" fill-opacity="0.87"/>
<path d="M775.371 382.431L786.882 322.58H797.16L785.786 382.431H775.371ZM788.629 305.999C788.629 304.211 789.327 302.494 790.575 301.213C791.823 299.933 793.522 299.192 795.31 299.147C796.149 299.126 796.983 299.28 797.759 299.6C798.535 299.92 799.236 300.398 799.816 301.005C800.397 301.611 800.844 302.332 801.13 303.121C801.416 303.91 801.534 304.75 801.476 305.588C801.477 306.505 801.293 307.413 800.936 308.258C800.579 309.103 800.056 309.868 799.397 310.507C798.739 311.146 797.959 311.646 797.104 311.978C796.249 312.31 795.336 312.467 794.419 312.44C793.602 312.439 792.795 312.267 792.049 311.935C791.303 311.602 790.635 311.116 790.089 310.509C789.543 309.902 789.131 309.186 788.88 308.409C788.628 307.632 788.543 306.811 788.629 305.999Z" fill="white" fill-opacity="0.87"/>
<path d="M804.32 396.032C809.127 398.762 814.586 400.136 820.113 400.006C830.391 400.006 838.168 394.935 841.628 378.731L843.615 369.686H843.444C841.437 373.471 838.453 376.65 834.802 378.891C831.151 381.132 826.966 382.355 822.683 382.431C810.555 382.431 804.389 372.153 804.389 361.67C804.389 341.388 819.223 321.21 842.313 321.21C848.961 321.3 855.522 322.733 861.601 325.424L852.351 374.894C849.987 387.638 846.527 396.271 840.361 401.719C834.363 406.258 826.979 408.582 819.463 408.296C813.222 408.508 807.037 407.054 801.545 404.083L804.32 396.032ZM850.296 331.488C847.16 330.174 843.794 329.499 840.395 329.501C825.458 329.501 815.043 345.191 815.043 359.923C815.043 366.774 817.407 374.277 826.554 374.277C835.701 374.277 844.232 363.143 846.459 351.529L850.296 331.488Z" fill="white" fill-opacity="0.87"/>
<path d="M932.003 294.625L918.814 363.383C917.635 369.681 916.811 376.04 916.347 382.431H906.926L908.536 370.577C903.089 379.108 895.552 383.801 887.021 383.801C875.407 383.801 869.104 374.277 869.104 362.012C869.104 340.737 884.931 321.21 906.069 321.21C909.714 321.186 913.326 321.897 916.69 323.3L922 294.625H932.003ZM914.874 331.967C911.961 330.123 908.554 329.215 905.11 329.363C890.755 329.363 879.621 344.711 879.621 360.676C879.621 367.836 882.088 375.373 890.893 375.373C898.806 375.373 908.296 366.363 910.9 352.865L914.874 331.967Z" fill="white" fill-opacity="0.87"/>
<path d="M976.506 379.108C970.39 382.239 963.609 383.849 956.738 383.801C940.911 383.801 933.99 372.907 933.99 359.82C933.99 341.765 947.351 321.347 966.639 321.347C978.013 321.347 984.18 328.199 984.18 336.798C984.18 352.523 966.502 356.599 944.371 356.223C943.91 360.058 944.332 363.949 945.604 367.597C946.72 370.159 948.606 372.312 951 373.754C953.394 375.197 956.178 375.858 958.965 375.647C964.579 375.665 970.106 374.262 975.033 371.571L976.506 379.108ZM965.132 329.261C955.368 329.261 948.002 338.785 945.501 348.172C961.672 348.412 974.279 346.185 974.279 336.798C974.279 332.036 970.579 329.261 965.132 329.261V329.261Z" fill="white" fill-opacity="0.87"/>
<path d="M1029.06 382.431L1018.78 299.078H1029.06L1035.29 352.591C1036.15 358.83 1036.68 365.107 1036.9 371.399H1037.28C1039.98 364.529 1043.03 357.805 1046.43 351.255L1072.91 299.181H1084.25L1040.36 382.533L1029.06 382.431Z" fill="white" fill-opacity="0.87"/>
<path d="M1077.64 382.431L1084.94 343.855C1086.31 336.044 1087.3 328.13 1087.92 322.58H1096.96C1096.48 326.794 1095.97 330.974 1095.35 335.564H1095.73C1099.56 327.411 1106 321.21 1114.02 321.21C1115.02 321.235 1116.01 321.314 1117 321.45L1115.02 331.727C1114.07 331.582 1113.12 331.502 1112.17 331.488C1103.26 331.488 1095.35 342.245 1092.75 356.223L1087.81 382.568L1077.64 382.431Z" fill="white" fill-opacity="0.87"/>
<path d="M1116.83 382.431L1128.34 322.58H1138.62L1127.25 382.431H1116.83ZM1130.19 305.999C1130.19 304.211 1130.89 302.494 1132.14 301.213C1133.39 299.933 1135.09 299.192 1136.87 299.147C1137.71 299.126 1138.55 299.28 1139.32 299.6C1140.1 299.92 1140.8 300.398 1141.38 301.005C1141.96 301.611 1142.41 302.332 1142.69 303.121C1142.98 303.91 1143.1 304.75 1143.04 305.588C1143.04 306.505 1142.86 307.413 1142.5 308.258C1142.14 309.103 1141.62 309.868 1140.96 310.507C1140.3 311.146 1139.52 311.646 1138.67 311.978C1137.81 312.31 1136.9 312.467 1135.98 312.44C1135.17 312.439 1134.36 312.267 1133.61 311.935C1132.87 311.602 1132.2 311.116 1131.65 310.509C1131.11 309.902 1130.69 309.186 1130.44 308.409C1130.19 307.632 1130.11 306.811 1130.19 305.999V305.999Z" fill="white" fill-opacity="0.87"/>
<path d="M1188.3 379.108C1182.18 382.235 1175.4 383.845 1168.53 383.801C1152.7 383.801 1145.78 372.907 1145.78 359.82C1145.78 341.765 1159.11 321.347 1178.39 321.347C1189.77 321.347 1195.97 328.199 1195.97 336.798C1195.97 352.523 1178.29 356.599 1156.16 356.223C1155.67 360.058 1156.09 363.956 1157.39 367.597C1158.51 370.163 1160.39 372.318 1162.79 373.761C1165.18 375.204 1167.97 375.864 1170.75 375.647C1176.37 375.656 1181.89 374.254 1186.82 371.571L1188.3 379.108ZM1176.92 329.261C1167.16 329.261 1159.79 338.785 1157.26 348.172C1173.46 348.412 1186.07 346.185 1186.07 336.798C1186.03 332.036 1182.37 329.261 1176.92 329.261V329.261Z" fill="white" fill-opacity="0.87"/>
<path d="M1201.28 382.431L1209.19 340.018C1210.53 333.166 1211.42 327.513 1212.04 322.58H1221.18L1219.71 334.331H1219.95C1222.21 330.43 1225.42 327.174 1229.3 324.876C1233.18 322.579 1237.58 321.316 1242.08 321.21C1249.24 321.21 1257.26 325.287 1257.26 337.791C1257.17 341.037 1256.8 344.269 1256.16 347.452L1249.31 382.431H1239.03L1245.61 347.795C1246.03 345.257 1246.27 342.693 1246.33 340.121C1246.33 334.194 1244 329.843 1236.94 329.843C1229.89 329.843 1219.27 338.648 1216.56 353.482L1211.11 382.533L1201.28 382.431Z" fill="white" fill-opacity="0.87"/>
<path d="M1330.71 294.625L1317.62 363.383C1316.45 369.683 1315.62 376.041 1315.12 382.431H1305.74L1307.35 370.577H1307.11C1301.66 379.108 1294.12 383.801 1285.59 383.801C1273.98 383.801 1267.67 374.277 1267.67 362.012C1267.67 340.737 1283.5 321.21 1304.64 321.21C1308.28 321.186 1311.9 321.897 1315.26 323.3L1320.57 294.625H1330.71ZM1313.58 331.967C1310.67 330.113 1307.26 329.203 1303.82 329.363C1289.5 329.363 1278.36 344.711 1278.36 360.676C1278.36 367.836 1280.83 375.373 1289.6 375.373C1297.51 375.373 1307.04 366.363 1309.64 352.865L1313.58 331.967Z" fill="white" fill-opacity="0.87"/>
<path d="M1375.21 379.108C1369.1 382.235 1362.32 383.845 1355.45 383.801C1339.62 383.801 1332.7 372.907 1332.7 359.82C1332.7 341.765 1346.06 321.347 1365.31 321.347C1376.72 321.347 1382.89 328.199 1382.89 336.798C1382.89 352.523 1365.21 356.599 1343.08 356.223C1342.6 360.058 1343.02 363.953 1344.31 367.597C1345.42 370.163 1347.31 372.318 1349.7 373.761C1352.1 375.204 1354.88 375.864 1357.67 375.647C1363.29 375.66 1368.81 374.258 1373.74 371.571L1375.21 379.108ZM1363.84 329.261C1354.07 329.261 1346.71 338.785 1344.17 348.172C1360.38 348.412 1372.99 346.185 1372.99 336.798C1372.99 332.036 1369.29 329.261 1363.84 329.261V329.261Z" fill="white" fill-opacity="0.87"/>
<path d="M1388.16 382.431L1396.08 340.018C1397.45 333.166 1398.3 327.513 1398.92 322.58H1408.07L1406.59 334.331H1406.83C1409.09 330.43 1412.31 327.174 1416.18 324.876C1420.06 322.579 1424.46 321.316 1428.96 321.21C1436.13 321.21 1444.18 325.287 1444.18 337.791C1444.07 341.038 1443.7 344.27 1443.05 347.452L1436.36 382.431H1426.26L1432.7 347.795C1433.14 345.259 1433.38 342.694 1433.42 340.121C1433.42 334.194 1431.09 329.843 1424.03 329.843C1416.97 329.843 1406.35 338.648 1403.65 353.482L1398.44 382.431H1388.16Z" fill="white" fill-opacity="0.87"/>
<path d="M1477.24 296.852C1472.7 307.113 1467.28 316.96 1461.03 326.28L1453.87 327.034C1458.61 317.694 1462.65 308.018 1465.96 298.085L1477.24 296.852Z" fill="white" fill-opacity="0.87"/>
<path d="M1522.36 299.078L1515.67 334.194H1553.98L1560.83 299.078H1571.11L1555.28 382.431H1545L1552.3 343.238H1513.93L1506.53 382.431H1496.25L1512.08 299.078H1522.36Z" fill="white" fill-opacity="0.87"/>
<path d="M1616.53 379.108C1610.42 382.239 1603.64 383.849 1596.77 383.801C1580.94 383.801 1574.02 372.907 1574.02 359.82C1574.02 341.765 1587.38 321.347 1606.67 321.347C1618.04 321.347 1624.21 328.199 1624.21 336.798C1624.21 352.523 1606.53 356.599 1584.4 356.223C1583.94 360.058 1584.36 363.949 1585.63 367.597C1586.74 370.163 1588.63 372.318 1591.02 373.761C1593.42 375.204 1596.2 375.864 1598.99 375.647C1604.61 375.665 1610.13 374.262 1615.06 371.571L1616.53 379.108ZM1605.16 329.261C1595.4 329.261 1588.03 338.785 1585.53 348.172C1601.7 348.412 1614.31 346.185 1614.31 336.798C1614.27 332.036 1610.61 329.261 1605.16 329.261V329.261Z" fill="white" fill-opacity="0.87"/>
<path d="M1687.76 322.58L1679.71 364.993C1678.37 371.845 1677.62 377.498 1677 382.431H1667.85L1669.33 371.194H1669.09C1666.86 374.833 1663.79 377.88 1660.13 380.075C1656.48 382.27 1652.34 383.549 1648.09 383.801C1640.41 383.801 1632.26 380.101 1632.26 366.466C1632.3 363.013 1632.67 359.572 1633.35 356.188L1639.9 322.443H1650.18L1643.73 356.017C1643.14 358.904 1642.81 361.84 1642.74 364.787C1642.74 370.954 1645.24 375.065 1652.27 375.065C1659.29 375.065 1669.39 366.295 1671.69 353.173L1677.48 322.34L1687.76 322.58Z" fill="white" fill-opacity="0.87"/>
<path d="M1695.05 372.05C1698.96 374.341 1703.38 375.613 1707.9 375.75C1714.75 375.75 1719.28 371.296 1719.28 365.986C1719.28 361.293 1717.19 358.449 1710.88 354.989C1704.03 351.152 1700.13 345.808 1700.13 339.641C1700.13 329.363 1709.14 321.21 1721.74 321.21C1726.1 321.081 1730.42 322.109 1734.25 324.19L1731.4 331.967C1728.26 330.218 1724.72 329.288 1721.13 329.261C1714.93 329.261 1710.47 333.098 1710.47 338.271C1710.47 342.622 1713.31 345.328 1718.76 348.309C1725.44 352.009 1729.9 357.319 1729.9 363.999C1729.9 376.607 1719.62 383.664 1707.15 383.664C1701.87 383.776 1696.67 382.36 1692.18 379.587L1695.05 372.05Z" fill="white" fill-opacity="0.87"/>
<path d="M1804.1 294.625L1790.98 363.383C1789.84 369.686 1789.01 376.044 1788.51 382.431H1779.13L1780.7 370.577H1780.46C1778.33 374.46 1775.23 377.722 1771.46 380.041C1767.69 382.36 1763.37 383.656 1758.95 383.801C1747.33 383.801 1741.03 374.277 1741.03 362.012C1741.03 340.737 1756.86 321.21 1778 321.21C1781.64 321.182 1785.25 321.893 1788.62 323.3L1793.96 294.625H1804.1ZM1786.97 331.967C1784.06 330.123 1780.65 329.215 1777.21 329.363C1762.85 329.363 1751.72 344.711 1751.72 360.676C1751.72 367.836 1754.22 375.373 1762.99 375.373C1770.9 375.373 1780.43 366.363 1783.03 352.865L1786.97 331.967Z" fill="white" fill-opacity="0.87"/>
<path d="M1848.6 379.108C1842.48 382.239 1835.68 383.849 1828.8 383.801C1812.97 383.801 1806.05 372.907 1806.05 359.82C1806.05 341.765 1819.41 321.347 1838.7 321.347C1850.08 321.347 1856.24 328.199 1856.24 336.798C1856.24 352.523 1838.57 356.599 1816.43 356.223C1815.97 360.061 1816.4 363.955 1817.7 367.597C1818.81 370.16 1820.69 372.314 1823.08 373.757C1825.46 375.201 1828.25 375.861 1831.03 375.647C1836.7 375.646 1842.28 374.195 1847.23 371.434L1848.6 379.108ZM1837.23 329.261C1827.47 329.261 1820.1 338.785 1817.56 348.172C1833.77 348.412 1846.38 346.185 1846.38 336.798C1846.38 332.036 1842.68 329.261 1837.23 329.261Z" fill="white" fill-opacity="0.87"/>
<path d="M1861.59 382.431L1869.5 340.018C1870.84 333.166 1871.69 327.513 1872.35 322.58H1881.49L1879.99 334.331H1880.23C1882.48 330.434 1885.71 327.182 1889.58 324.885C1893.45 322.588 1897.85 321.323 1902.36 321.21C1909.55 321.21 1917.57 325.287 1917.57 337.791C1917.48 341.037 1917.11 344.269 1916.47 347.452L1909.62 382.431H1899.34L1905.89 347.795C1906.34 345.26 1906.59 342.694 1906.64 340.121C1906.64 334.194 1904.27 329.843 1897.25 329.843C1890.23 329.843 1879.57 338.648 1876.7 353.482L1871.25 382.533L1861.59 382.431Z" fill="white" fill-opacity="0.87"/>
</svg>
