<svg width="263" height="481" viewBox="0 0 263 481" fill="none" xmlns="http://www.w3.org/2000/svg">
<path d="M27.2 315C27.2 315 -9.79999 245.27 45.07 188.31C140 89.77 91.7 0.149994 91.7 0.149994C91.7 0.149994 116.21 59.28 61.7 120.21C-51.83 247.14 27.2 315 27.2 315Z" fill="white"/>
<path d="M186.07 480.43C186.07 480.43 149.07 410.7 203.94 353.74C298.85 255.19 250.57 165.57 250.57 165.57C250.57 165.57 275.09 224.7 220.57 285.63C107 412.56 186.07 480.43 186.07 480.43Z" fill="white"/>
<path d="M102.12 405.34C102.12 405.34 65.12 335.6 120 278.65C214.91 180.1 166.62 90.48 166.62 90.48C166.62 90.48 191.14 149.6 136.62 210.48C23.1 337.46 102.12 405.34 102.12 405.34Z" fill="white"/>
<path d="M30.48 226.44C77.48 250.51 100.87 219.75 101.95 218.76C96.6413 219.539 91.2245 218.522 86.56 215.87C84.3436 214.545 82.2781 212.982 80.4 211.21C77.6611 208.53 75.4906 205.325 74.0181 201.788C72.5457 198.25 71.8015 194.452 71.83 190.62C71.6997 186.797 72.3678 182.989 73.7918 179.438C75.2157 175.888 77.3641 172.674 80.1 170C82.8288 167.24 86.086 165.059 89.677 163.586C93.2681 162.114 97.1191 161.38 101 161.43C104.867 161.28 108.723 161.938 112.322 163.362C115.92 164.786 119.182 166.945 121.9 169.7C126.713 174.507 129.67 179.767 130.77 185.48C131.871 191.165 131.666 197.026 130.17 202.62C128.67 208.34 126.87 214.19 123.1 219.01C89.62 261.78 35.1 236.53 26.79 231.67L30.48 226.44Z" fill="white"/>
<path d="M110.66 301.44C157.66 325.51 181.04 294.74 182.13 293.76C176.821 294.539 171.404 293.522 166.74 290.87C164.526 289.541 162.461 287.979 160.58 286.21C157.838 283.53 155.666 280.324 154.193 276.784C152.72 273.245 151.978 269.444 152.01 265.61C151.879 261.79 152.547 257.984 153.971 254.437C155.395 250.89 157.544 247.679 160.28 245.01C163.011 242.253 166.268 240.073 169.859 238.601C173.45 237.129 177.3 236.394 181.18 236.44C185.045 236.293 188.899 236.953 192.495 238.377C196.092 239.8 199.353 241.957 202.07 244.71C206.89 249.53 209.847 254.793 210.94 260.5C212.051 266.184 211.846 272.047 210.34 277.64C208.84 283.35 207.05 289.21 203.28 294.03C169.79 336.8 115.28 311.55 106.96 306.69L110.66 301.44Z" fill="white"/>
</svg>
