<svg id="Layer_1" data-name="Layer 1" xmlns="http://www.w3.org/2000/svg" viewBox="0 0 595.28 841.89"><title>logo_KHH</title><path d="M193.2,438s-37-69.73,17.87-126.69C306,212.77,257.7,123.15,257.7,123.15s24.51,59.13-30,120.06C114.17,370.14,193.2,438,193.2,438Z"/><path d="M352.07,603.43s-37-69.73,17.87-126.69c94.91-98.55,46.63-188.17,46.63-188.17s24.52,59.13-30,120.06C273,535.56,352.07,603.43,352.07,603.43Z"/><path d="M268.12,528.34s-37-69.74,17.88-126.69c94.91-98.55,46.62-188.17,46.62-188.17s24.52,59.12-30,120C189.1,460.46,268.12,528.34,268.12,528.34Z"/><path d="M196.48,349.44c47,24.07,70.39-6.69,71.47-7.68a24.07,24.07,0,0,1-15.39-2.89,35.57,35.57,0,0,1-6.16-4.66,28.51,28.51,0,0,1-8.57-20.59A27.52,27.52,0,0,1,246.1,293a28.87,28.87,0,0,1,20.9-8.57,27.84,27.84,0,0,1,20.9,8.27q7.22,7.21,8.87,15.78a38.22,38.22,0,0,1-.6,17.14c-1.5,5.72-3.3,11.57-7.07,16.39-33.48,42.77-88,17.52-96.31,12.66Z"/><path d="M276.66,424.44c47,24.07,70.38-6.7,71.47-7.68a24.07,24.07,0,0,1-15.39-2.89,36.2,36.2,0,0,1-6.16-4.66,28.47,28.47,0,0,1-8.57-20.6,27.46,27.46,0,0,1,8.27-20.6,28.93,28.93,0,0,1,20.9-8.57,27.87,27.87,0,0,1,20.89,8.27q7.23,7.23,8.87,15.79a37.93,37.93,0,0,1-.6,17.14c-1.5,5.71-3.29,11.57-7.06,16.39-33.49,42.77-88,17.52-96.32,12.66Z"/><path d="M65.31,634.45h6.37V647h.08c.63-1.1,1.31-2.11,2-3.12l6.42-9.46h7.93l-9.41,12.12,9.87,16.34H81.09l-7-12.29-2.4,3v9.29H65.31Z"/><path d="M115.86,648.38c0,9.37-5.62,15-14,15S88.52,657,88.52,648.85c0-8.53,5.48-14.91,13.83-14.91C111.09,633.94,115.86,640.49,115.86,648.38Zm-20.55.34c0,5.61,2.61,9.54,6.92,9.54s6.83-4.14,6.83-9.67c0-5.15-2.4-9.54-6.83-9.54S95.31,643.19,95.31,648.72Z"/><path d="M120.08,662.91V634.45h7.51l5.9,10.43a87.93,87.93,0,0,1,4.64,9.75h.09a117.43,117.43,0,0,1-.51-11.91v-8.27h5.91v28.46h-6.75l-6.08-11a97.57,97.57,0,0,1-4.93-10h-.17c.21,3.8.29,7.81.29,12.45v8.58Z"/><path d="M155.65,634.45v28.46h-6.41V634.45Z"/><path d="M161.22,662.91V634.45h7.51l5.91,10.43a91.67,91.67,0,0,1,4.64,9.75h.08a117.55,117.55,0,0,1-.5-11.91v-8.27h5.9v28.46H178l-6.07-11a95.63,95.63,0,0,1-4.94-10h-.17c.21,3.8.3,7.81.3,12.45v8.58Z"/><path d="M190.33,634.45h6.38V647h.08c.63-1.1,1.31-2.11,2-3.12l6.42-9.46h7.93l-9.41,12.12,9.87,16.34h-7.47l-7-12.29-2.4,3v9.29h-6.38Z"/><path d="M216.29,634.45h6.41v23H234v5.41H216.29Z"/><path d="M244.26,634.45v28.46h-6.41V634.45Z"/><path d="M255.4,634.45h6.41v18c0,8.11-3.88,10.94-10.08,10.94a16.58,16.58,0,0,1-4.73-.68l.72-5.19A10.48,10.48,0,0,0,251,658c2.7,0,4.39-1.23,4.39-5.62Z"/><path d="M267.17,634.45h6.37V647h.09c.63-1.1,1.31-2.11,2-3.12l6.42-9.46H290l-9.41,12.12,9.87,16.34H283l-7-12.29-2.41,3v9.29h-6.37Z"/><path d="M310,650.87H299.54v6.76h11.68v5.28h-18.1V634.45h17.51v5.28H299.54v5.91H310Z"/><path d="M330.59,634.45v10.93h10.59V634.45h6.42v28.46h-6.42V651H330.59v11.91h-6.41V634.45Z"/><path d="M359.84,655.6l-2,7.31h-6.62l8.65-28.46h8.44l8.85,28.46h-7L368,655.6Zm7.21-4.81-1.77-6c-.51-1.69-1-3.8-1.43-5.49h-.09c-.42,1.69-.84,3.84-1.31,5.49l-1.68,6Z"/><path d="M380.89,634.83a55.87,55.87,0,0,1,8.57-.59c4.22,0,7.17.63,9.2,2.24a7.23,7.23,0,0,1,2.65,6,7.54,7.54,0,0,1-5,7v.12c2,.81,3.08,2.66,3.8,5.28.89,3.25,1.73,7,2.28,8.07h-6.58a38.53,38.53,0,0,1-1.94-6.63c-.81-3.59-2-4.52-4.69-4.56h-1.9v11.19h-6.37Zm6.37,12.24h2.53c3.21,0,5.11-1.6,5.11-4.09s-1.77-3.93-4.72-3.93a13.38,13.38,0,0,0-2.92.21Z"/><path d="M430,652c-.12-3.42-.25-7.55-.25-11.69h-.08c-.93,3.63-2.11,7.68-3.21,11L423,662.44h-5l-3-11c-.93-3.37-1.85-7.43-2.57-11.14h-.09c-.12,3.84-.29,8.23-.46,11.78l-.55,10.81h-6l1.82-28.46h8.56l2.79,9.5c.93,3.29,1.77,6.84,2.4,10.17H421c.76-3.29,1.73-7,2.7-10.21l3-9.46h8.43l1.52,28.46h-6.24Z"/><path d="M467.65,648.38c0,9.37-5.61,15-14,15s-13.37-6.37-13.37-14.52c0-8.53,5.48-14.91,13.83-14.91C462.88,633.94,467.65,640.49,467.65,648.38Zm-20.55.34c0,5.61,2.61,9.54,6.92,9.54s6.83-4.14,6.83-9.67c0-5.15-2.4-9.54-6.83-9.54S447.1,643.19,447.1,648.72Z"/><path d="M471.87,662.91V634.45h7.51l5.91,10.43a91.67,91.67,0,0,1,4.64,9.75H490a117.43,117.43,0,0,1-.51-11.91v-8.27h5.91v28.46h-6.75l-6.07-11a95.63,95.63,0,0,1-4.94-10h-.17c.21,3.8.3,7.81.3,12.45v8.58Z"/><path d="M507.44,634.45v28.46H501V634.45Z"/><path d="M529.93,650.87H519.46v6.76h11.69v5.28h-18.1V634.45h17.51v5.28h-11.1v5.91h10.47Z"/><path d="M64.5,693.54A55.89,55.89,0,0,1,69.23,685l2.1-.22a57.63,57.63,0,0,0-3.54,8.45Z"/><path d="M74.57,685.67a35.39,35.39,0,0,1,6.06-.47c4.05,0,7.15,1.15,9,3.25a9.26,9.26,0,0,1,2.28,6.6A15.26,15.26,0,0,1,87,706.5c-2.82,2.38-6.36,3.39-11,3.39a55.2,55.2,0,0,1-5.88-.29Zm-1.08,21.59a25,25,0,0,0,3.14.14c3.86,0,6.67-1.12,8.7-3.21a12.82,12.82,0,0,0,3.32-9c0-4.33-2.1-7.55-8.16-7.55a18.88,18.88,0,0,0-3.32.26Z"/><path d="M106.22,708.74a12.5,12.5,0,0,1-5.77,1.37c-4.62,0-6.64-3.18-6.64-7,0-5.27,3.89-11.23,9.52-11.23,3.32,0,5.13,2,5.13,4.51,0,4.59-5.16,5.78-11.62,5.67a7.13,7.13,0,0,0,.36,3.32,3.92,3.92,0,0,0,3.9,2.35,9.78,9.78,0,0,0,4.69-1.19Zm-3.32-14.55c-2.85,0-5,2.78-5.74,5.52,4.73.07,8.41-.58,8.41-3.32C105.57,695,104.49,694.19,102.9,694.19Z"/><path d="M121.56,709.71l-3-24.33h3L123.36,701c.29,2.5.43,3.9.47,5.49h.11a59.05,59.05,0,0,1,2.67-5.88l7.72-15.2h3.32l-12.81,24.33Z"/><path d="M147.5,708.74a12.5,12.5,0,0,1-5.77,1.37c-4.62,0-6.64-3.18-6.64-7,0-5.27,3.9-11.23,9.53-11.23,3.32,0,5.12,2,5.12,4.51,0,4.59-5.16,5.78-11.62,5.67a7.26,7.26,0,0,0,.36,3.32,3.92,3.92,0,0,0,3.9,2.35,9.75,9.75,0,0,0,4.69-1.19Zm-3.32-14.55c-2.85,0-5,2.78-5.74,5.52,4.73.07,8.41-.58,8.41-3.32C146.85,695,145.77,694.19,144.18,694.19Z"/><path d="M151.29,709.71l2.13-11.26c.4-2.28.69-4.59.87-6.21h2.63c-.14,1.23-.29,2.45-.47,3.79h.11c1.12-2.38,3-4.19,5.34-4.19a7.86,7.86,0,0,1,.87.07l-.58,3a6,6,0,0,0-.83-.07c-2.6,0-4.91,3.14-5.67,7.22l-1.44,7.69Z"/><path d="M175.11,708.74a12.51,12.51,0,0,1-5.78,1.37c-4.62,0-6.64-3.18-6.64-7,0-5.27,3.9-11.23,9.53-11.23,3.32,0,5.12,2,5.12,4.51,0,4.59-5.16,5.78-11.61,5.67a7.13,7.13,0,0,0,.36,3.32,3.91,3.91,0,0,0,3.89,2.35,9.72,9.72,0,0,0,4.69-1.19Zm-3.32-14.55c-2.85,0-5,2.78-5.74,5.52,4.73.07,8.41-.58,8.41-3.32C174.46,695,173.38,694.19,171.79,694.19Z"/><path d="M178.9,709.71l2.31-12.38c.39-2,.65-3.65.83-5.09h2.67l-.44,3.43h.08a7.67,7.67,0,0,1,6.46-3.83c2.09,0,4.43,1.19,4.43,4.84a16.58,16.58,0,0,1-.32,2.82L193,709.71h-3l1.91-10.11a14.41,14.41,0,0,0,.22-2.24c0-1.73-.68-3-2.74-3s-5.16,2.57-6,6.9l-1.58,8.48Z"/><path d="M198.13,709.71l3.36-17.47h3l-3.32,17.47ZM202,687.4a2,2,0,0,1,1.95-2,1.76,1.76,0,0,1,1.8,1.88,2,2,0,0,1-2.06,2A1.7,1.7,0,0,1,202,687.4Z"/><path d="M206.58,713.68a8.91,8.91,0,0,0,4.61,1.16c3,0,5.27-1.48,6.28-6.21l.58-2.64H218a7,7,0,0,1-6.06,3.72c-3.54,0-5.34-3-5.34-6.06,0-5.92,4.33-11.81,11.07-11.81a14.39,14.39,0,0,1,5.63,1.23l-2.7,14.44c-.69,3.72-1.7,6.24-3.5,7.83a9.51,9.51,0,0,1-6.1,1.92,10.26,10.26,0,0,1-5.23-1.23ZM220,694.84a7.47,7.47,0,0,0-2.89-.58c-4.36,0-7.4,4.58-7.4,8.88,0,2,.69,4.19,3.36,4.19s5.16-3.25,5.81-6.64Z"/><path d="M243.85,684.08,240,704.15a49.88,49.88,0,0,0-.72,5.56h-2.75l.47-3.46H237c-1.59,2.49-3.79,3.86-6.28,3.86-3.39,0-5.23-2.78-5.23-6.36,0-6.21,4.62-11.91,10.79-11.91a7.92,7.92,0,0,1,3.1.61l1.55-8.37Zm-5,10.9a4.93,4.93,0,0,0-2.85-.76c-4.19,0-7.44,4.48-7.44,9.14,0,2.09.72,4.29,3.29,4.29,2.31,0,5.08-2.63,5.84-6.57Z"/><path d="M256.84,708.74a12.47,12.47,0,0,1-5.77,1.37c-4.62,0-6.64-3.18-6.64-7,0-5.27,3.9-11.23,9.53-11.23,3.32,0,5.12,2,5.12,4.51,0,4.59-5.16,5.78-11.62,5.67a7.4,7.4,0,0,0,.36,3.32,3.93,3.93,0,0,0,3.9,2.35,9.72,9.72,0,0,0,4.69-1.19Zm-3.32-14.55c-2.85,0-5,2.78-5.73,5.52,4.72.07,8.4-.58,8.4-3.32C256.19,695,255.11,694.19,253.52,694.19Z"/><path d="M272.18,709.71l-3-24.33h3L274,701a54.92,54.92,0,0,1,.47,5.49h.11a61.48,61.48,0,0,1,2.67-5.88l7.73-15.2h3.31l-12.81,24.33Z"/><path d="M286.36,709.71l2.13-11.26c.4-2.28.69-4.59.87-6.21H292c-.14,1.23-.29,2.45-.47,3.79h.11c1.12-2.38,3-4.19,5.34-4.19a7.86,7.86,0,0,1,.87.07l-.58,3a6,6,0,0,0-.83-.07c-2.6,0-4.91,3.14-5.67,7.22l-1.44,7.69Z"/><path d="M297.8,709.71l3.36-17.47h3l-3.32,17.47Zm3.9-22.31a2,2,0,0,1,1.95-2,1.76,1.76,0,0,1,1.8,1.88,2,2,0,0,1-2.06,2A1.7,1.7,0,0,1,301.7,687.4Z"/><path d="M318.66,708.74a12.5,12.5,0,0,1-5.77,1.37c-4.62,0-6.64-3.18-6.64-7,0-5.27,3.89-11.23,9.52-11.23,3.32,0,5.13,2,5.13,4.51,0,4.59-5.16,5.78-11.62,5.67a7.13,7.13,0,0,0,.36,3.32,3.92,3.92,0,0,0,3.9,2.35,9.78,9.78,0,0,0,4.69-1.19Zm-3.32-14.55c-2.85,0-5,2.78-5.74,5.52,4.73.07,8.41-.58,8.41-3.32C318,695,316.93,694.19,315.34,694.19Z"/><path d="M322.45,709.71l2.31-12.38c.39-2,.65-3.65.83-5.09h2.67l-.43,3.43h.07a7.67,7.67,0,0,1,6.46-3.83c2.09,0,4.43,1.19,4.43,4.84a16.58,16.58,0,0,1-.32,2.82l-2,10.21h-3l1.92-10.11a15.78,15.78,0,0,0,.21-2.24c0-1.73-.68-3-2.74-3s-5.16,2.57-5.95,6.9l-1.59,8.48Z"/><path d="M360.23,684.08l-3.82,20.07a52.45,52.45,0,0,0-.73,5.56h-2.74l.47-3.46h-.07c-1.59,2.49-3.79,3.86-6.28,3.86-3.39,0-5.23-2.78-5.23-6.36,0-6.21,4.62-11.91,10.79-11.91a7.92,7.92,0,0,1,3.1.61l1.55-8.37Zm-5,10.9a4.88,4.88,0,0,0-2.85-.76c-4.18,0-7.43,4.48-7.43,9.14,0,2.09.72,4.29,3.28,4.29,2.31,0,5.09-2.63,5.85-6.57Z"/><path d="M373.22,708.74a12.5,12.5,0,0,1-5.77,1.37c-4.62,0-6.64-3.18-6.64-7,0-5.27,3.9-11.23,9.52-11.23,3.33,0,5.13,2,5.13,4.51,0,4.59-5.16,5.78-11.62,5.67a7.26,7.26,0,0,0,.36,3.32,3.92,3.92,0,0,0,3.9,2.35,9.75,9.75,0,0,0,4.69-1.19Zm-3.32-14.55c-2.85,0-5,2.78-5.74,5.52,4.73.07,8.41-.58,8.41-3.32C372.57,695,371.49,694.19,369.9,694.19Z"/><path d="M377,709.71l2.31-12.38c.4-2,.65-3.65.83-5.09h2.67l-.43,3.43h.07a7.67,7.67,0,0,1,6.46-3.83c2.09,0,4.44,1.19,4.44,4.84a16.65,16.65,0,0,1-.33,2.82l-1.95,10.21h-2.95L390,699.6a14.44,14.44,0,0,0,.21-2.24c0-1.73-.68-3-2.74-3s-5.16,2.57-5.95,6.9L380,709.71Z"/><path d="M403,684.73a56.37,56.37,0,0,1-4.73,8.59l-2.09.22a62.33,62.33,0,0,0,3.53-8.45Z"/><path d="M416.17,685.38l-1.95,10.25H425.4l2-10.25h3l-4.62,24.33h-3l2.13-11.44H413.71l-2.16,11.44h-3l4.62-24.33Z"/><path d="M443.66,708.74a12.47,12.47,0,0,1-5.77,1.37c-4.62,0-6.64-3.18-6.64-7,0-5.27,3.9-11.23,9.53-11.23,3.32,0,5.12,2,5.12,4.51,0,4.59-5.16,5.78-11.62,5.67a7.4,7.4,0,0,0,.36,3.32,3.92,3.92,0,0,0,3.9,2.35,9.72,9.72,0,0,0,4.69-1.19Zm-3.32-14.55c-2.85,0-5,2.78-5.73,5.52,4.72.07,8.4-.58,8.4-3.32C443,695,441.93,694.19,440.34,694.19Z"/><path d="M464.45,692.24l-2.35,12.38c-.39,2-.61,3.65-.79,5.09h-2.67l.43-3.28H459a7.72,7.72,0,0,1-6.13,3.68c-2.24,0-4.62-1.08-4.62-5.06a16,16,0,0,1,.32-3l1.91-9.85h3L451.6,702a14.22,14.22,0,0,0-.29,2.56c0,1.8.73,3,2.78,3s5-2.56,5.67-6.39l1.69-9Z"/><path d="M466.58,706.68a7.88,7.88,0,0,0,3.75,1.08c2,0,3.32-1.3,3.32-2.85,0-1.37-.61-2.2-2.45-3.21-2-1.12-3.14-2.68-3.14-4.48,0-3,2.63-5.38,6.31-5.38a7.2,7.2,0,0,1,3.65.87l-.83,2.27a6.27,6.27,0,0,0-3-.79c-1.81,0-3.11,1.12-3.11,2.63,0,1.27.83,2.06,2.42,2.93,1.95,1.08,3.25,2.63,3.25,4.58,0,3.68-3,5.74-6.64,5.74a8,8,0,0,1-4.37-1.19Z"/><path d="M498.41,684.08l-3.83,20.07a55.07,55.07,0,0,0-.72,5.56h-2.74l.46-3.46h-.07a7.44,7.44,0,0,1-6.28,3.86c-3.39,0-5.23-2.78-5.23-6.36,0-6.21,4.62-11.91,10.79-11.91a7.88,7.88,0,0,1,3.1.61l1.56-8.37Zm-5,10.9a4.93,4.93,0,0,0-2.85-.76c-4.19,0-7.44,4.48-7.44,9.14,0,2.09.73,4.29,3.29,4.29,2.31,0,5.09-2.63,5.85-6.57Z"/><path d="M511.4,708.74a12.51,12.51,0,0,1-5.78,1.37c-4.62,0-6.64-3.18-6.64-7,0-5.27,3.9-11.23,9.53-11.23,3.32,0,5.12,2,5.12,4.51,0,4.59-5.16,5.78-11.62,5.67a7.28,7.28,0,0,0,.37,3.32,3.91,3.91,0,0,0,3.89,2.35A9.72,9.72,0,0,0,511,706.5Zm-3.32-14.55c-2.85,0-5,2.78-5.74,5.52,4.73.07,8.41-.58,8.41-3.32C510.75,695,509.67,694.19,508.08,694.19Z"/><path d="M515.19,709.71l2.31-12.38c.39-2,.64-3.65.83-5.09H521l-.44,3.43h.07a7.69,7.69,0,0,1,6.46-3.83c2.1,0,4.44,1.19,4.44,4.84a16.58,16.58,0,0,1-.32,2.82l-2,10.21h-3l1.91-10.11a14.41,14.41,0,0,0,.22-2.24c0-1.73-.69-3-2.74-3s-5.16,2.57-6,6.9l-1.59,8.48Z"/></svg>