<svg width="1718" height="481" viewBox="0 0 1718 481" fill="none" xmlns="http://www.w3.org/2000/svg">
<path d="M27.2 315C27.2 315 -9.79999 245.27 45.07 188.31C140 89.77 91.7 0.149994 91.7 0.149994C91.7 0.149994 116.21 59.28 61.7 120.21C-51.83 247.14 27.2 315 27.2 315Z" fill="#3D41B1" fill-opacity="0.87"/>
<path d="M186.07 480.43C186.07 480.43 149.07 410.7 203.94 353.74C298.85 255.19 250.57 165.57 250.57 165.57C250.57 165.57 275.09 224.7 220.57 285.63C107 412.56 186.07 480.43 186.07 480.43Z" fill="#3D41B1" fill-opacity="0.87"/>
<path d="M102.12 405.34C102.12 405.34 65.12 335.6 120 278.65C214.91 180.1 166.62 90.48 166.62 90.48C166.62 90.48 191.14 149.6 136.62 210.48C23.1 337.46 102.12 405.34 102.12 405.34Z" fill="#3D41B1" fill-opacity="0.87"/>
<path d="M30.48 226.44C77.48 250.51 100.87 219.75 101.95 218.76C96.6413 219.539 91.2245 218.522 86.56 215.87C84.3436 214.545 82.2781 212.982 80.4 211.21C77.6611 208.53 75.4906 205.325 74.0181 201.788C72.5457 198.25 71.8015 194.452 71.83 190.62C71.6997 186.797 72.3678 182.989 73.7918 179.438C75.2157 175.888 77.3641 172.674 80.1 170C82.8288 167.24 86.086 165.059 89.677 163.586C93.2681 162.114 97.1191 161.38 101 161.43C104.867 161.28 108.723 161.938 112.322 163.362C115.92 164.786 119.182 166.945 121.9 169.7C126.713 174.507 129.67 179.767 130.77 185.48C131.871 191.165 131.666 197.026 130.17 202.62C128.67 208.34 126.87 214.19 123.1 219.01C89.62 261.78 35.1 236.53 26.79 231.67L30.48 226.44Z" fill="#3D41B1" fill-opacity="0.87"/>
<path d="M110.66 301.44C157.66 325.51 181.04 294.74 182.13 293.76C176.821 294.539 171.404 293.522 166.74 290.87C164.526 289.541 162.461 287.979 160.58 286.21C157.838 283.53 155.666 280.324 154.193 276.784C152.72 273.245 151.978 269.444 152.01 265.61C151.879 261.79 152.547 257.984 153.971 254.437C155.395 250.89 157.544 247.679 160.28 245.01C163.011 242.253 166.268 240.073 169.859 238.601C173.45 237.129 177.3 236.394 181.18 236.44C185.045 236.293 188.899 236.953 192.495 238.377C196.092 239.8 199.353 241.957 202.07 244.71C206.89 249.53 209.847 254.793 210.94 260.5C212.051 266.184 211.846 272.047 210.34 277.64C208.84 283.35 207.05 289.21 203.28 294.03C169.79 336.8 115.28 311.55 106.96 306.69L110.66 301.44Z" fill="#3D41B1" fill-opacity="0.87"/>
<path d="M320.428 124.529H339.523V162.15H339.763C341.652 158.852 343.69 155.824 345.758 152.797L365.003 124.439H388.775L360.567 160.771L390.154 209.752H367.731L346.748 172.911L339.553 181.904V209.752H320.428V124.529Z" fill="#3D41B1" fill-opacity="0.87"/>
<path d="M471.96 166.286C471.96 194.374 455.113 211.251 429.993 211.251C404.872 211.251 390.004 192.126 390.004 167.695C390.004 142.125 406.431 123 431.462 123C457.661 123 471.96 142.635 471.96 166.286ZM410.358 167.305C410.358 184.122 418.182 195.903 431.102 195.903C444.022 195.903 451.576 183.493 451.576 166.916C451.576 151.478 444.382 138.318 431.102 138.318C417.822 138.318 410.358 150.728 410.358 167.305Z" fill="#3D41B1" fill-opacity="0.87"/>
<path d="M484.61 209.842V124.529H507.123L524.809 155.794C530.04 165.243 534.685 175.004 538.718 185.022H538.988C537.874 173.155 537.364 161.238 537.459 149.319V124.529H555.175V209.842H534.941L516.715 176.868C511.222 167.166 506.288 157.157 501.937 146.891H501.427C502.057 158.282 502.297 170.303 502.297 184.212V209.932L484.61 209.842Z" fill="#3D41B1" fill-opacity="0.87"/>
<path d="M591.237 124.529V209.842H572.022V124.529H591.237Z" fill="#3D41B1" fill-opacity="0.87"/>
<path d="M607.934 209.842V124.529H630.447L648.163 155.794C653.37 165.255 658.014 175.014 662.072 185.022H662.312C661.209 173.154 660.709 161.238 660.813 149.319V124.529H678.499V209.842H658.235L640.039 176.868C634.524 167.172 629.579 157.163 625.231 146.891H624.721C625.351 158.282 625.62 170.303 625.62 184.212V209.932L607.934 209.842Z" fill="#3D41B1" fill-opacity="0.87"/>
<path d="M695.196 124.529H714.321V162.15H714.561C716.45 158.852 718.488 155.824 720.557 152.797L739.802 124.439H763.573L735.365 160.771L764.952 209.752H742.559L721.576 172.911L714.381 181.904V209.752H695.256L695.196 124.529Z" fill="#3D41B1" fill-opacity="0.87"/>
<path d="M773.016 124.529H792.231V193.475H826.104V209.692H773.016V124.529Z" fill="#3D41B1" fill-opacity="0.87"/>
<path d="M856.861 124.529V209.842H837.646V124.529H856.861Z" fill="#3D41B1" fill-opacity="0.87"/>
<path d="M890.254 124.529H909.47V178.487C909.47 202.798 897.839 211.281 879.253 211.281C874.453 211.29 869.677 210.603 865.074 209.243L867.232 193.685C870.413 194.683 873.732 195.169 877.065 195.124C885.158 195.124 890.225 191.437 890.225 178.277L890.254 124.529Z" fill="#3D41B1" fill-opacity="0.87"/>
<path d="M925.537 124.529H944.632V162.15H944.902C946.791 158.852 948.829 155.824 950.897 152.797L970.142 124.439H993.974L965.766 160.771L995.353 209.752H972.99L952.006 172.911L944.782 181.904V209.752H925.687L925.537 124.529Z" fill="#3D41B1" fill-opacity="0.87"/>
<path d="M1053.93 173.75H1022.57V194.015H1057.58V209.842H1003.33V124.529H1055.82V140.356H1022.57V158.073H1053.93V173.75Z" fill="#3D41B1" fill-opacity="0.87"/>
<path d="M1115.65 124.529V157.293H1147.39V124.529H1166.64V209.842H1147.39V174.14H1115.65V209.842H1096.43V124.529H1115.65Z" fill="#3D41B1" fill-opacity="0.87"/>
<path d="M1203.33 187.929L1197.34 209.842H1177.49L1203.42 124.529H1228.72L1255.25 209.842H1234.27L1227.79 187.929H1203.33ZM1224.94 173.511L1219.64 155.525C1218.11 150.459 1216.64 144.134 1215.35 139.067H1215.08C1213.82 144.134 1212.56 150.578 1211.15 155.525L1206.12 173.511H1224.94Z" fill="#3D41B1" fill-opacity="0.87"/>
<path d="M1266.43 125.668C1274.94 124.42 1283.53 123.829 1292.12 123.899C1304.77 123.899 1313.61 125.788 1319.7 130.614C1322.35 132.773 1324.45 135.528 1325.83 138.654C1327.21 141.78 1327.83 145.188 1327.64 148.6C1327.58 153.209 1326.11 157.689 1323.44 161.439C1320.76 165.19 1317 168.031 1312.66 169.584V169.943C1318.65 172.371 1321.89 177.917 1324.05 185.771C1326.71 195.514 1329.23 206.755 1330.88 209.962H1311.16C1308.63 203.525 1306.68 196.873 1305.34 190.088C1302.91 179.326 1299.35 176.538 1291.28 176.418H1285.59V209.962H1266.49L1266.43 125.668ZM1285.53 162.359H1293.11C1302.73 162.359 1308.43 157.563 1308.43 150.099C1308.43 142.635 1303.12 138.318 1294.28 138.318C1291.35 138.207 1288.41 138.418 1285.53 138.948V162.359Z" fill="#3D41B1" fill-opacity="0.87"/>
<path d="M1413.65 177.138C1413.29 166.886 1412.9 154.505 1412.9 142.095H1412.66C1409.87 152.977 1406.33 165.117 1403.04 175.069L1392.66 208.433H1377.67L1368.68 175.459C1365.89 165.357 1363.14 153.186 1360.98 142.065H1360.71C1360.35 153.576 1359.84 166.736 1359.33 177.378L1357.68 209.782H1339.69L1345.15 124.469H1370.81L1379.17 152.947C1381.96 162.809 1384.48 173.451 1386.37 183.433H1386.67C1388.95 173.571 1391.85 162.449 1394.76 152.827L1403.75 124.469H1429.02L1433.58 209.782H1414.88L1413.65 177.138Z" fill="#3D41B1" fill-opacity="0.87"/>
<path d="M1526.51 166.286C1526.51 194.374 1509.69 211.251 1484.54 211.251C1459.39 211.251 1444.46 192.156 1444.46 167.725C1444.46 142.155 1460.89 123.03 1485.92 123.03C1512.21 123 1526.51 142.635 1526.51 166.286ZM1464.91 167.305C1464.91 184.122 1472.73 195.903 1485.65 195.903C1498.57 195.903 1506.12 183.493 1506.12 166.916C1506.12 151.478 1498.93 138.318 1485.65 138.318C1472.37 138.318 1464.91 150.728 1464.91 167.305V167.305Z" fill="#3D41B1" fill-opacity="0.87"/>
<path d="M1539.16 209.842V124.529H1561.67L1579.39 155.794C1584.59 165.255 1589.24 175.014 1593.3 185.022H1593.51C1592.39 173.155 1591.88 161.238 1591.98 149.319V124.529H1609.69V209.842H1589.46L1571.26 176.868C1565.75 167.172 1560.8 157.163 1556.46 146.891H1555.95C1556.58 158.282 1556.85 170.303 1556.85 184.212V209.932L1539.16 209.842Z" fill="#3D41B1" fill-opacity="0.87"/>
<path d="M1645.79 124.529V209.842H1626.48V124.529H1645.79Z" fill="#3D41B1" fill-opacity="0.87"/>
<path d="M1713.2 173.75H1681.82V194.015H1716.86V209.842H1662.6V124.529H1715.09V140.356H1681.82V158.073H1713.2V173.75Z" fill="#3D41B1" fill-opacity="0.87"/>
<path d="M318 301.661C321.971 292.73 326.715 284.164 332.179 276.061L338.474 275.401C334.27 283.55 330.722 292.02 327.862 300.732L318 301.661Z" fill="#3D41B1" fill-opacity="0.87"/>
<path d="M348.186 278.069C354.19 277.08 360.268 276.608 366.352 276.66C378.493 276.66 387.786 280.108 393.331 286.403C398.104 291.853 400.557 298.953 400.166 306.187C400.265 312.622 399.005 319.005 396.469 324.919C393.933 330.834 390.177 336.147 385.447 340.511C376.994 347.645 366.382 350.673 352.473 350.673C346.586 350.697 340.703 350.406 334.847 349.803L348.186 278.069ZM344.949 342.789C348.075 343.126 351.218 343.266 354.362 343.209C365.933 343.209 374.356 339.851 380.441 333.586C387.125 326.22 390.693 316.549 390.394 306.607C390.394 293.627 384.098 283.975 365.933 283.975C362.599 283.941 359.268 284.202 355.98 284.754L344.949 342.789Z" fill="#3D41B1" fill-opacity="0.87"/>
<path d="M443.063 347.225C437.71 349.962 431.778 351.371 425.766 351.332C411.917 351.332 405.862 341.8 405.862 330.349C405.862 314.551 417.523 296.685 434.399 296.685C444.352 296.685 449.777 302.68 449.777 310.204C449.777 323.964 434.309 327.531 414.944 327.201C414.511 330.557 414.881 333.968 416.024 337.153C416.996 339.399 418.646 341.284 420.741 342.547C422.837 343.81 425.275 344.387 427.715 344.198C432.626 344.205 437.46 342.978 441.774 340.63L443.063 347.225ZM433.11 303.609C424.567 303.609 418.122 311.943 415.904 320.157C430.083 320.366 441.114 318.418 441.114 310.204C441.114 306.038 437.877 303.609 433.11 303.609Z" fill="#3D41B1" fill-opacity="0.87"/>
<path d="M489.047 350.133L480.054 277.2H489.047L494.443 324.023C495.312 331.518 495.732 335.714 495.852 340.481H496.181C498.526 334.464 501.198 328.579 504.185 322.854L527.327 277.29H537.279L498.879 350.223L489.047 350.133Z" fill="#3D41B1" fill-opacity="0.87"/>
<path d="M566.806 347.225C561.454 349.962 555.521 351.371 549.51 351.332C535.661 351.332 529.605 341.8 529.605 330.349C529.605 314.551 541.296 296.685 558.173 296.685C568.125 296.685 573.521 302.68 573.521 310.204C573.521 323.964 558.053 327.531 538.688 327.201C538.27 330.557 538.639 333.965 539.767 337.153C540.74 339.399 542.389 341.284 544.485 342.547C546.581 343.81 549.019 344.387 551.458 344.198C556.37 344.209 561.205 342.982 565.517 340.63L566.806 347.225ZM556.854 303.609C548.311 303.609 541.866 311.943 539.647 320.157C553.826 320.366 564.858 318.418 564.858 310.204C564.858 306.038 561.62 303.609 556.854 303.609Z" fill="#3D41B1" fill-opacity="0.87"/>
<path d="M578.167 350.133L584.552 316.379C585.751 309.545 586.621 302.62 587.16 297.764H595.044C594.625 301.451 594.175 305.108 593.635 309.125H593.965C597.322 301.991 602.958 296.565 609.973 296.565C610.845 296.587 611.716 296.656 612.581 296.775L610.842 305.768C610.018 305.64 609.187 305.57 608.354 305.558C600.56 305.558 593.635 314.971 591.357 327.201L587.04 350.253L578.167 350.133Z" fill="#3D41B1" fill-opacity="0.87"/>
<path d="M649.572 347.225C644.21 349.966 638.267 351.374 632.245 351.332C618.396 351.332 612.341 341.8 612.341 330.349C612.341 314.551 624.032 296.685 640.909 296.685C650.861 296.685 656.257 302.68 656.257 310.204C656.257 323.964 640.789 327.531 621.454 327.201C621.021 330.557 621.39 333.968 622.533 337.153C623.5 339.396 625.144 341.281 627.235 342.544C629.325 343.807 631.758 344.385 634.194 344.198C639.106 344.213 643.942 342.986 648.253 340.63L649.572 347.225ZM639.62 303.609C631.076 303.609 624.631 311.943 622.413 320.157C636.592 320.366 647.623 318.418 647.623 310.204C647.623 306.038 644.386 303.609 639.62 303.609V303.609Z" fill="#3D41B1" fill-opacity="0.87"/>
<path d="M660.933 350.133L667.858 313.022C669.027 307.027 669.806 302.081 670.346 297.764H678.349L677.03 308.046H677.27C679.243 304.632 682.06 301.784 685.451 299.773C688.843 297.763 692.694 296.658 696.635 296.565C702.9 296.565 709.915 300.132 709.915 311.074C709.837 313.914 709.516 316.742 708.956 319.527L703.2 350.133H694.207L699.933 319.827C700.327 317.609 700.548 315.364 700.592 313.112C700.592 307.926 698.554 304.119 692.378 304.119C686.203 304.119 676.91 311.823 674.392 324.803L669.656 350.223L660.933 350.133Z" fill="#3D41B1" fill-opacity="0.87"/>
<path d="M718.578 350.133L728.65 297.764H737.643L727.691 350.133H718.578ZM730.179 283.255C730.179 281.691 730.79 280.188 731.882 279.068C732.974 277.948 734.461 277.299 736.025 277.26C736.759 277.242 737.489 277.377 738.168 277.656C738.847 277.936 739.46 278.355 739.968 278.885C740.476 279.416 740.867 280.047 741.117 280.737C741.367 281.428 741.471 282.163 741.42 282.896C741.421 283.698 741.26 284.493 740.947 285.232C740.635 285.972 740.177 286.641 739.601 287.2C739.025 287.759 738.343 288.197 737.595 288.487C736.846 288.778 736.047 288.915 735.245 288.891C734.531 288.891 733.824 288.74 733.171 288.449C732.519 288.158 731.934 287.733 731.457 287.202C730.979 286.67 730.618 286.044 730.398 285.364C730.178 284.684 730.103 283.966 730.179 283.255Z" fill="#3D41B1" fill-opacity="0.87"/>
<path d="M743.908 362.034C748.115 364.423 752.891 365.625 757.728 365.511C766.721 365.511 773.525 361.075 776.553 346.896L778.292 338.982H778.142C776.386 342.294 773.775 345.075 770.58 347.036C767.386 348.997 763.724 350.067 759.976 350.133C749.364 350.133 743.968 341.14 743.968 331.967C743.968 314.221 756.948 296.565 777.153 296.565C782.969 296.643 788.71 297.898 794.029 300.252L785.936 343.538C783.867 354.69 780.84 362.244 775.444 367.01C770.196 370.982 763.735 373.015 757.158 372.766C751.697 372.951 746.286 371.678 741.48 369.078L743.908 362.034ZM784.137 305.558C781.394 304.409 778.448 303.818 775.474 303.819C762.404 303.819 753.291 317.549 753.291 330.439C753.291 336.434 755.36 342.999 763.363 342.999C771.367 342.999 778.831 333.256 780.78 323.094L784.137 305.558Z" fill="#3D41B1" fill-opacity="0.87"/>
<path d="M855.631 273.303L844.09 333.466C843.059 338.977 842.338 344.541 841.932 350.133H833.688L835.097 339.761C830.331 347.225 823.736 351.332 816.272 351.332C806.11 351.332 800.594 342.999 800.594 332.267C800.594 313.652 814.443 296.565 832.939 296.565C836.128 296.544 839.288 297.166 842.232 298.393L846.878 273.303H855.631ZM840.643 305.977C838.095 304.364 835.113 303.569 832.1 303.699C819.539 303.699 809.797 317.129 809.797 331.098C809.797 337.363 811.955 343.958 819.659 343.958C826.584 343.958 834.888 336.074 837.166 324.263L840.643 305.977Z" fill="#3D41B1" fill-opacity="0.87"/>
<path d="M894.571 347.225C889.22 349.965 883.286 351.374 877.275 351.332C863.425 351.332 857.37 341.8 857.37 330.349C857.37 314.551 869.061 296.685 885.938 296.685C895.89 296.685 901.286 302.68 901.286 310.204C901.286 323.964 885.818 327.531 866.453 327.201C866.05 330.557 866.419 333.961 867.532 337.153C868.508 339.396 870.158 341.279 872.253 342.541C874.348 343.803 876.784 344.382 879.223 344.198C884.135 344.213 888.971 342.986 893.282 340.63L894.571 347.225ZM884.619 303.609C876.075 303.609 869.63 311.943 867.442 320.157C881.591 320.366 892.623 318.418 892.623 310.204C892.623 306.038 889.385 303.609 884.619 303.609V303.609Z" fill="#3D41B1" fill-opacity="0.87"/>
<path d="M940.555 350.133L931.562 277.2H940.555L946.011 324.023C946.756 329.482 947.226 334.975 947.42 340.481H947.75C950.107 334.469 952.779 328.586 955.753 322.854L978.925 277.29H988.848L950.448 350.223L940.555 350.133Z" fill="#3D41B1" fill-opacity="0.87"/>
<path d="M983.062 350.133L989.447 316.379C990.646 309.545 991.515 302.62 992.055 297.764H999.969C999.549 301.451 999.1 305.108 998.56 309.125H998.89C1002.25 301.991 1007.88 296.565 1014.9 296.565C1015.77 296.587 1016.64 296.656 1017.51 296.775L1015.77 305.768C1014.94 305.64 1014.11 305.57 1013.28 305.558C1005.48 305.558 998.56 314.971 996.282 327.201L991.965 350.253L983.062 350.133Z" fill="#3D41B1" fill-opacity="0.87"/>
<path d="M1017.36 350.133L1027.43 297.764H1036.42L1026.47 350.133H1017.36ZM1029.05 283.255C1029.05 281.691 1029.66 280.188 1030.75 279.068C1031.84 277.948 1033.33 277.299 1034.89 277.26C1035.63 277.242 1036.36 277.377 1037.03 277.656C1037.71 277.936 1038.33 278.355 1038.83 278.885C1039.34 279.416 1039.73 280.047 1039.98 280.737C1040.23 281.428 1040.34 282.163 1040.29 282.896C1040.29 283.698 1040.13 284.493 1039.81 285.232C1039.5 285.972 1039.04 286.641 1038.47 287.2C1037.89 287.759 1037.21 288.197 1036.46 288.487C1035.71 288.778 1034.91 288.915 1034.11 288.891C1033.4 288.891 1032.69 288.74 1032.04 288.449C1031.39 288.158 1030.8 287.733 1030.32 287.202C1029.85 286.67 1029.49 286.044 1029.27 285.364C1029.05 284.684 1028.97 283.966 1029.05 283.255V283.255Z" fill="#3D41B1" fill-opacity="0.87"/>
<path d="M1079.89 347.225C1074.53 349.962 1068.6 351.371 1062.59 351.332C1048.74 351.332 1042.69 341.8 1042.69 330.349C1042.69 314.551 1054.35 296.685 1071.22 296.685C1081.18 296.685 1086.6 302.68 1086.6 310.204C1086.6 323.964 1071.13 327.531 1051.77 327.201C1051.34 330.557 1051.71 333.968 1052.85 337.153C1053.82 339.399 1055.47 341.284 1057.57 342.547C1059.66 343.81 1062.1 344.387 1064.54 344.198C1069.45 344.205 1074.28 342.978 1078.6 340.63L1079.89 347.225ZM1069.93 303.609C1061.39 303.609 1054.95 311.943 1052.73 320.157C1066.91 320.366 1077.94 318.418 1077.94 310.204C1077.91 306.038 1074.7 303.609 1069.93 303.609V303.609Z" fill="#3D41B1" fill-opacity="0.87"/>
<path d="M1091.25 350.133L1098.17 313.022C1099.34 307.027 1100.12 302.081 1100.66 297.764H1108.66L1107.38 308.046H1107.59C1109.56 304.632 1112.38 301.784 1115.77 299.773C1119.16 297.763 1123.01 296.658 1126.95 296.565C1133.22 296.565 1140.23 300.132 1140.23 311.074C1140.15 313.914 1139.83 316.742 1139.27 319.527L1133.28 350.133H1124.28L1130.04 319.827C1130.41 317.606 1130.62 315.362 1130.67 313.112C1130.67 307.926 1128.63 304.119 1122.45 304.119C1116.28 304.119 1106.99 311.823 1104.62 324.803L1099.85 350.223L1091.25 350.133Z" fill="#3D41B1" fill-opacity="0.87"/>
<path d="M1204.5 273.303L1193.05 333.466C1192.02 338.979 1191.29 344.542 1190.86 350.133H1182.65L1184.06 339.761H1183.85C1179.08 347.225 1172.48 351.332 1165.02 351.332C1154.86 351.332 1149.34 342.999 1149.34 332.267C1149.34 313.652 1163.19 296.565 1181.69 296.565C1184.88 296.544 1188.04 297.166 1190.98 298.393L1195.63 273.303H1204.5ZM1189.51 305.977C1186.97 304.355 1183.98 303.559 1180.97 303.699C1168.44 303.699 1158.7 317.129 1158.7 331.098C1158.7 337.363 1160.85 343.958 1168.53 343.958C1175.45 343.958 1183.79 336.074 1186.06 324.263L1189.51 305.977Z" fill="#3D41B1" fill-opacity="0.87"/>
<path d="M1243.44 347.225C1238.09 349.962 1232.15 351.371 1226.14 351.332C1212.29 351.332 1206.24 341.8 1206.24 330.349C1206.24 314.551 1217.93 296.685 1234.78 296.685C1244.76 296.685 1250.15 302.68 1250.15 310.204C1250.15 323.964 1234.69 327.531 1215.32 327.201C1214.9 330.557 1215.27 333.965 1216.4 337.153C1217.37 339.399 1219.02 341.284 1221.12 342.547C1223.21 343.81 1225.65 344.387 1228.09 344.198C1233 344.209 1237.84 342.982 1242.15 340.63L1243.44 347.225ZM1233.49 303.609C1224.94 303.609 1218.5 311.943 1216.28 320.157C1230.46 320.366 1241.49 318.418 1241.49 310.204C1241.49 306.038 1238.25 303.609 1233.49 303.609V303.609Z" fill="#3D41B1" fill-opacity="0.87"/>
<path d="M1254.77 350.133L1261.7 313.022C1262.89 307.027 1263.64 302.081 1264.18 297.764H1272.19L1270.9 308.046H1271.11C1273.08 304.632 1275.9 301.784 1279.29 299.773C1282.68 297.763 1286.53 296.658 1290.47 296.565C1296.74 296.565 1303.78 300.132 1303.78 311.074C1303.69 313.914 1303.36 316.742 1302.79 319.527L1296.95 350.133H1288.1L1293.74 319.827C1294.12 317.608 1294.33 315.363 1294.37 313.112C1294.37 307.926 1292.33 304.119 1286.16 304.119C1279.98 304.119 1270.69 311.823 1268.32 324.803L1263.76 350.133H1254.77Z" fill="#3D41B1" fill-opacity="0.87"/>
<path d="M1332.71 275.251C1328.74 284.23 1324 292.846 1318.53 301.001L1312.27 301.661C1316.41 293.488 1319.95 285.022 1322.85 276.331L1332.71 275.251Z" fill="#3D41B1" fill-opacity="0.87"/>
<path d="M1372.19 277.2L1366.34 307.926H1399.86L1405.85 277.2H1414.85L1401 350.133H1392L1398.39 315.84H1364.82L1358.34 350.133H1349.35L1363.2 277.2H1372.19Z" fill="#3D41B1" fill-opacity="0.87"/>
<path d="M1454.59 347.225C1449.24 349.965 1443.31 351.374 1437.3 351.332C1423.45 351.332 1417.39 341.8 1417.39 330.349C1417.39 314.551 1429.08 296.685 1445.96 296.685C1455.91 296.685 1461.31 302.68 1461.31 310.204C1461.31 323.964 1445.84 327.531 1426.48 327.201C1426.07 330.557 1426.44 333.961 1427.56 337.153C1428.53 339.399 1430.18 341.284 1432.27 342.547C1434.37 343.81 1436.81 344.387 1439.25 344.198C1444.16 344.213 1449 342.986 1453.31 340.63L1454.59 347.225ZM1444.64 303.609C1436.1 303.609 1429.65 311.943 1427.47 320.157C1441.62 320.366 1452.65 318.418 1452.65 310.204C1452.62 306.038 1449.41 303.609 1444.64 303.609V303.609Z" fill="#3D41B1" fill-opacity="0.87"/>
<path d="M1516.92 297.764L1509.87 334.875C1508.7 340.87 1508.04 345.817 1507.5 350.133H1499.5L1500.79 340.301H1500.58C1498.63 343.485 1495.94 346.151 1492.75 348.072C1489.55 349.993 1485.93 351.111 1482.2 351.332C1475.49 351.332 1468.35 348.095 1468.35 336.164C1468.39 333.143 1468.71 330.132 1469.31 327.171L1475.04 297.644H1484.03L1478.4 327.021C1477.87 329.548 1477.58 332.116 1477.53 334.695C1477.53 340.091 1479.72 343.688 1485.86 343.688C1492.01 343.688 1500.85 336.014 1502.86 324.533L1507.92 297.554L1516.92 297.764Z" fill="#3D41B1" fill-opacity="0.87"/>
<path d="M1523.3 341.05C1526.72 343.055 1530.58 344.168 1534.54 344.288C1540.54 344.288 1544.49 340.391 1544.49 335.744C1544.49 331.637 1542.67 329.149 1537.15 326.122C1531.16 322.764 1527.74 318.088 1527.74 312.692C1527.74 303.699 1535.62 296.565 1546.65 296.565C1550.47 296.452 1554.24 297.352 1557.59 299.173L1555.11 305.977C1552.35 304.447 1549.26 303.633 1546.11 303.609C1540.69 303.609 1536.79 306.967 1536.79 311.493C1536.79 315.3 1539.28 317.668 1544.05 320.276C1549.89 323.514 1553.79 328.16 1553.79 334.006C1553.79 345.037 1544.79 351.212 1533.88 351.212C1529.26 351.31 1524.72 350.071 1520.78 347.645L1523.3 341.05Z" fill="#3D41B1" fill-opacity="0.87"/>
<path d="M1618.72 273.303L1607.24 333.466C1606.23 338.982 1605.51 344.544 1605.08 350.133H1596.86L1598.24 339.761H1598.03C1596.17 343.159 1593.46 346.013 1590.15 348.042C1586.85 350.071 1583.08 351.205 1579.21 351.332C1569.05 351.332 1563.53 342.999 1563.53 332.267C1563.53 313.652 1577.38 296.565 1595.88 296.565C1599.06 296.541 1602.23 297.163 1605.17 298.393L1609.84 273.303H1618.72ZM1603.73 305.977C1601.18 304.364 1598.2 303.569 1595.19 303.699C1582.63 303.699 1572.88 317.129 1572.88 331.098C1572.88 337.363 1575.07 343.958 1582.75 343.958C1589.67 343.958 1598 336.074 1600.28 324.263L1603.73 305.977Z" fill="#3D41B1" fill-opacity="0.87"/>
<path d="M1657.66 347.225C1652.29 349.966 1646.35 351.374 1640.33 351.332C1626.48 351.332 1620.43 341.8 1620.43 330.349C1620.43 314.551 1632.12 296.685 1648.99 296.685C1658.95 296.685 1664.34 302.68 1664.34 310.204C1664.34 323.964 1648.87 327.531 1629.51 327.201C1629.1 330.56 1629.48 333.967 1630.62 337.153C1631.59 339.396 1633.23 341.281 1635.32 342.544C1637.41 343.807 1639.84 344.385 1642.28 344.198C1647.24 344.196 1652.12 342.927 1656.46 340.511L1657.66 347.225ZM1647.7 303.609C1639.16 303.609 1632.72 311.943 1630.5 320.157C1644.68 320.366 1655.71 318.418 1655.71 310.204C1655.71 306.038 1652.47 303.609 1647.7 303.609Z" fill="#3D41B1" fill-opacity="0.87"/>
<path d="M1669.02 350.133L1675.94 313.022C1677.11 307.027 1677.86 302.081 1678.43 297.764H1686.43L1685.12 308.046H1685.33C1687.3 304.636 1690.12 301.791 1693.51 299.781C1696.9 297.771 1700.75 296.664 1704.69 296.565C1710.99 296.565 1718 300.132 1718 311.074C1717.92 313.914 1717.6 316.742 1717.04 319.527L1711.05 350.133H1702.05L1707.78 319.827C1708.17 317.609 1708.39 315.364 1708.44 313.112C1708.44 307.926 1706.37 304.119 1700.22 304.119C1694.08 304.119 1684.76 311.823 1682.24 324.803L1677.47 350.223L1669.02 350.133Z" fill="#3D41B1" fill-opacity="0.87"/>
</svg>
