<svg width="1918" height="481" viewBox="0 0 1918 481" fill="none" xmlns="http://www.w3.org/2000/svg">
<path d="M27.2 315C27.2 315 -9.79999 245.27 45.07 188.31C140 89.77 91.7 0.149994 91.7 0.149994C91.7 0.149994 116.21 59.28 61.7 120.21C-51.83 247.14 27.2 315 27.2 315Z" fill="#3D41B1" fill-opacity="0.87"/>
<path d="M186.07 480.43C186.07 480.43 149.07 410.7 203.94 353.74C298.85 255.19 250.57 165.57 250.57 165.57C250.57 165.57 275.09 224.7 220.57 285.63C107 412.56 186.07 480.43 186.07 480.43Z" fill="#3D41B1" fill-opacity="0.87"/>
<path d="M102.12 405.34C102.12 405.34 65.12 335.6 120 278.65C214.91 180.1 166.62 90.48 166.62 90.48C166.62 90.48 191.14 149.6 136.62 210.48C23.1 337.46 102.12 405.34 102.12 405.34Z" fill="#3D41B1" fill-opacity="0.87"/>
<path d="M30.48 226.44C77.48 250.51 100.87 219.75 101.95 218.76C96.6413 219.539 91.2245 218.522 86.56 215.87C84.3436 214.545 82.2781 212.982 80.4 211.21C77.6611 208.53 75.4906 205.325 74.0181 201.788C72.5457 198.25 71.8015 194.452 71.83 190.62C71.6997 186.797 72.3678 182.989 73.7918 179.438C75.2157 175.888 77.3641 172.674 80.1 170C82.8288 167.24 86.086 165.059 89.677 163.586C93.2681 162.114 97.1191 161.38 101 161.43C104.867 161.28 108.723 161.938 112.322 163.362C115.92 164.786 119.182 166.945 121.9 169.7C126.713 174.507 129.67 179.767 130.77 185.48C131.871 191.165 131.666 197.026 130.17 202.62C128.67 208.34 126.87 214.19 123.1 219.01C89.62 261.78 35.1 236.53 26.79 231.67L30.48 226.44Z" fill="#3D41B1" fill-opacity="0.87"/>
<path d="M110.66 301.44C157.66 325.51 181.04 294.74 182.13 293.76C176.821 294.539 171.404 293.522 166.74 290.87C164.526 289.541 162.461 287.979 160.58 286.21C157.838 283.53 155.666 280.324 154.193 276.784C152.72 273.245 151.978 269.444 152.01 265.61C151.879 261.79 152.547 257.984 153.971 254.437C155.395 250.89 157.544 247.679 160.28 245.01C163.011 242.253 166.268 240.073 169.859 238.601C173.45 237.129 177.3 236.394 181.18 236.44C185.045 236.293 188.899 236.953 192.495 238.377C196.092 239.8 199.353 241.957 202.07 244.71C206.89 249.53 209.847 254.793 210.94 260.5C212.051 266.184 211.846 272.047 210.34 277.64C208.84 283.35 207.05 289.21 203.28 294.03C169.79 336.8 115.28 311.55 106.96 306.69L110.66 301.44Z" fill="#3D41B1" fill-opacity="0.87"/>
<path d="M320.775 124.747H342.598V167.742H342.872C345.03 163.974 347.36 160.514 349.724 157.053L371.718 124.644H398.886L366.648 166.166L400.461 222.146H374.836L350.854 180.041L342.632 190.319V222.146H320.775V124.747Z" fill="#3D41B1" fill-opacity="0.87"/>
<path d="M493.954 172.47C493.954 204.571 474.701 223.859 445.992 223.859C417.283 223.859 400.29 202.001 400.29 174.08C400.29 144.857 419.064 123 447.67 123C477.613 123 493.954 145.44 493.954 172.47ZM423.552 173.635C423.552 192.854 432.494 206.318 447.259 206.318C462.025 206.318 470.658 192.135 470.658 173.19C470.658 155.546 462.436 140.506 447.259 140.506C432.083 140.506 423.552 154.69 423.552 173.635Z" fill="#3D41B1" fill-opacity="0.87"/>
<path d="M508.412 222.248V124.747H534.14L554.353 160.479C560.331 171.277 565.64 182.433 570.249 193.882H570.558C569.285 180.319 568.702 166.701 568.81 153.079V124.747H589.057V222.248H565.933L545.103 184.563C538.825 173.475 533.186 162.037 528.213 150.304H527.631C528.351 163.323 528.625 177.061 528.625 192.957V222.351L508.412 222.248Z" fill="#3D41B1" fill-opacity="0.87"/>
<path d="M630.271 124.747V222.248H608.311V124.747H630.271Z" fill="#3D41B1" fill-opacity="0.87"/>
<path d="M649.353 222.248V124.747H675.082L695.329 160.479C701.279 171.292 706.587 182.445 711.225 193.882H711.499C710.239 180.319 709.667 166.7 709.786 153.079V124.747H729.999V222.248H706.84L686.045 184.563C679.742 173.483 674.091 162.044 669.121 150.304H668.538C669.258 163.323 669.566 177.061 669.566 192.957V222.351L649.353 222.248Z" fill="#3D41B1" fill-opacity="0.87"/>
<path d="M749.082 124.747H770.939V167.742H771.213C773.371 163.974 775.701 160.514 778.065 157.053L800.059 124.644H827.226L794.989 166.166L828.802 222.146H803.211L779.23 180.041L771.007 190.319V222.146H749.15L749.082 124.747Z" fill="#3D41B1" fill-opacity="0.87"/>
<path d="M838.018 124.747H859.978V203.543H898.691V222.077H838.018V124.747Z" fill="#3D41B1" fill-opacity="0.87"/>
<path d="M933.841 124.747V222.248H911.881V124.747H933.841Z" fill="#3D41B1" fill-opacity="0.87"/>
<path d="M972.005 124.747H993.965V186.414C993.965 214.198 980.673 223.893 959.432 223.893C953.946 223.903 948.488 223.118 943.228 221.563L945.694 203.783C949.329 204.924 953.122 205.479 956.931 205.427C966.181 205.427 971.971 201.213 971.971 186.174L972.005 124.747Z" fill="#3D41B1" fill-opacity="0.87"/>
<path d="M1012.33 124.747H1034.15V167.742H1034.46C1036.62 163.974 1038.95 160.514 1041.31 157.053L1063.31 124.644H1090.54L1058.3 166.166L1092.12 222.146H1066.56L1042.58 180.041L1034.32 190.319V222.146H1012.5L1012.33 124.747Z" fill="#3D41B1" fill-opacity="0.87"/>
<path d="M1159.06 181.001H1123.22V204.16H1163.24V222.248H1101.23V124.747H1161.22V142.836H1123.22V163.083H1159.06V181.001Z" fill="#3D41B1" fill-opacity="0.87"/>
<path d="M1229.6 124.747V162.192H1265.88V124.747H1287.87V222.248H1265.88V181.446H1229.6V222.248H1207.64V124.747H1229.6Z" fill="#3D41B1" fill-opacity="0.87"/>
<path d="M1329.81 197.205L1322.95 222.248H1300.28L1329.91 124.747H1358.82L1389.14 222.248H1365.16L1357.76 197.205H1329.81ZM1354.51 180.726L1348.44 160.171C1346.7 154.381 1345.02 147.153 1343.54 141.363H1343.24C1341.8 147.153 1340.36 154.518 1338.75 160.171L1332.99 180.726H1354.51Z" fill="#3D41B1" fill-opacity="0.87"/>
<path d="M1401.92 126.049C1411.64 124.623 1421.46 123.947 1431.28 124.028C1445.74 124.028 1455.85 126.186 1462.8 131.702C1465.83 134.17 1468.23 137.318 1469.8 140.891C1471.38 144.463 1472.09 148.358 1471.88 152.257C1471.81 157.524 1470.13 162.644 1467.07 166.93C1464.01 171.217 1459.71 174.464 1454.75 176.238V176.65C1461.6 179.425 1465.3 185.763 1467.77 194.738C1470.82 205.873 1473.69 218.72 1475.58 222.385H1453.04C1450.15 215.029 1447.92 207.427 1446.39 199.672C1443.61 187.373 1439.54 184.187 1430.32 184.05H1423.81V222.385H1401.99L1401.92 126.049ZM1423.74 167.982H1432.41C1443.41 167.982 1449.92 162.501 1449.92 153.97C1449.92 145.44 1443.85 140.506 1433.75 140.506C1430.4 140.379 1427.04 140.621 1423.74 141.226V167.982Z" fill="#3D41B1" fill-opacity="0.87"/>
<path d="M1570.17 184.872C1569.76 173.155 1569.31 159.006 1569.31 144.823H1569.04C1565.85 157.259 1561.81 171.134 1558.04 182.508L1546.19 220.638H1529.06L1518.78 182.953C1515.59 171.408 1512.44 157.499 1509.97 144.789H1509.67C1509.26 157.944 1508.67 172.984 1508.09 185.146L1506.21 222.18H1485.65L1491.89 124.679H1521.21L1530.77 157.225C1533.96 168.496 1536.83 180.658 1538.99 192.066H1539.33C1541.94 180.795 1545.26 168.085 1548.58 157.088L1558.86 124.679H1587.74L1592.95 222.18H1571.57L1570.17 184.872Z" fill="#3D41B1" fill-opacity="0.87"/>
<path d="M1699.15 172.47C1699.15 204.571 1679.93 223.859 1651.19 223.859C1622.45 223.859 1605.39 202.036 1605.39 174.114C1605.39 144.892 1624.16 123.034 1652.77 123.034C1682.81 123 1699.15 145.44 1699.15 172.47ZM1628.75 173.635C1628.75 192.854 1637.69 206.318 1652.46 206.318C1667.22 206.318 1675.86 192.135 1675.86 173.19C1675.86 155.546 1667.63 140.506 1652.46 140.506C1637.28 140.506 1628.75 154.69 1628.75 173.635V173.635Z" fill="#3D41B1" fill-opacity="0.87"/>
<path d="M1713.61 222.248V124.747H1739.34L1759.59 160.479C1765.54 171.292 1770.84 182.445 1775.48 193.882H1775.72C1774.45 180.319 1773.87 166.701 1773.97 153.079V124.747H1794.22V222.248H1771.1L1750.3 184.563C1744 173.483 1738.35 162.044 1733.38 150.304H1732.8C1733.51 163.323 1733.82 177.061 1733.82 192.957V222.351L1713.61 222.248Z" fill="#3D41B1" fill-opacity="0.87"/>
<path d="M1835.47 124.747V222.248H1813.41V124.747H1835.47Z" fill="#3D41B1" fill-opacity="0.87"/>
<path d="M1912.52 181.001H1876.65V204.16H1916.7V222.248H1854.69V124.747H1914.68V142.836H1876.65V163.083H1912.52V181.001Z" fill="#3D41B1" fill-opacity="0.87"/>
<path d="M318 327.184C322.538 316.977 327.96 307.188 334.205 297.927L341.399 297.173C336.595 306.486 332.539 316.166 329.271 326.122L318 327.184Z" fill="#3D41B1" fill-opacity="0.87"/>
<path d="M352.499 300.222C359.36 299.091 366.306 298.552 373.26 298.612C387.135 298.612 397.755 302.552 404.093 309.746C409.547 315.975 412.351 324.089 411.904 332.357C412.017 339.711 410.577 347.006 407.679 353.765C404.78 360.525 400.488 366.596 395.083 371.584C385.422 379.737 373.294 383.197 357.398 383.197C350.67 383.225 343.946 382.893 337.253 382.204L352.499 300.222ZM348.799 374.187C352.371 374.573 355.964 374.733 359.556 374.667C372.78 374.667 382.407 370.83 389.361 363.67C397 355.251 401.077 344.199 400.735 332.837C400.735 318.002 393.541 306.971 372.78 306.971C368.97 306.932 365.164 307.231 361.406 307.862L348.799 374.187Z" fill="#3D41B1" fill-opacity="0.87"/>
<path d="M460.929 379.258C454.811 382.385 448.031 383.995 441.161 383.951C425.334 383.951 418.413 373.057 418.413 359.97C418.413 341.915 431.74 321.497 451.028 321.497C462.402 321.497 468.603 328.349 468.603 336.948C468.603 352.673 450.925 356.749 428.794 356.373C428.299 360.208 428.721 364.106 430.027 367.747C431.139 370.313 433.024 372.468 435.419 373.911C437.814 375.354 440.6 376.014 443.388 375.797C449.001 375.806 454.526 374.404 459.456 371.721L460.929 379.258ZM449.555 329.411C439.791 329.411 432.425 338.935 429.89 348.322C446.095 348.562 458.702 346.335 458.702 336.948C458.702 332.186 455.002 329.411 449.555 329.411Z" fill="#3D41B1" fill-opacity="0.87"/>
<path d="M513.482 382.581L503.204 299.229H513.482L519.649 352.741C520.642 361.306 521.122 366.102 521.259 371.549H521.636C524.315 364.673 527.369 357.948 530.783 351.405L557.231 299.331H568.605L524.719 382.683L513.482 382.581Z" fill="#3D41B1" fill-opacity="0.87"/>
<path d="M602.35 379.258C596.233 382.385 589.453 383.995 582.583 383.951C566.755 383.951 559.835 373.057 559.835 359.97C559.835 341.915 573.196 321.497 592.483 321.497C603.857 321.497 610.024 328.349 610.024 336.948C610.024 352.673 592.346 356.749 570.215 356.373C569.737 360.208 570.159 364.103 571.448 367.747C572.56 370.313 574.445 372.468 576.84 373.911C579.235 375.354 582.021 376.014 584.809 375.797C590.423 375.81 595.949 374.408 600.877 371.721L602.35 379.258ZM590.976 329.411C581.212 329.411 573.847 338.935 571.311 348.322C587.516 348.562 600.123 346.335 600.123 336.948C600.123 332.186 596.423 329.411 590.976 329.411Z" fill="#3D41B1" fill-opacity="0.87"/>
<path d="M615.334 382.581L622.631 344.005C624.002 336.194 624.995 328.28 625.612 322.73H634.622C634.142 326.944 633.628 331.124 633.012 335.714H633.389C637.226 327.561 643.666 321.36 651.683 321.36C652.68 321.385 653.675 321.464 654.664 321.6L652.676 331.877C651.735 331.732 650.785 331.652 649.833 331.638C640.926 331.638 633.012 342.395 630.408 356.373L625.475 382.718L615.334 382.581Z" fill="#3D41B1" fill-opacity="0.87"/>
<path d="M696.939 379.258C690.811 382.389 684.019 383.999 677.138 383.951C661.31 383.951 654.39 373.057 654.39 359.97C654.39 341.915 667.751 321.497 687.038 321.497C698.412 321.497 704.579 328.349 704.579 336.948C704.579 352.673 686.901 356.749 664.804 356.373C664.309 360.208 664.732 364.106 666.038 367.747C667.143 370.31 669.022 372.464 671.411 373.907C673.801 375.351 676.581 376.011 679.364 375.797C684.978 375.815 690.505 374.412 695.432 371.721L696.939 379.258ZM685.565 329.411C675.801 329.411 668.436 338.935 665.901 348.322C682.105 348.562 694.712 346.335 694.712 336.948C694.712 332.186 691.012 329.411 685.565 329.411V329.411Z" fill="#3D41B1" fill-opacity="0.87"/>
<path d="M709.923 382.581L717.837 340.168C719.173 333.316 720.064 327.663 720.681 322.73H729.828L728.32 334.481H728.595C730.849 330.58 734.069 327.324 737.944 325.027C741.82 322.729 746.221 321.466 750.726 321.36C757.886 321.36 765.903 325.437 765.903 337.941C765.814 341.187 765.447 344.419 764.806 347.602L758.229 382.581H747.951L754.494 347.945C754.945 345.41 755.197 342.845 755.248 340.271C755.248 334.344 752.918 329.993 745.861 329.993C738.804 329.993 728.183 338.798 725.306 353.632L719.893 382.683L709.923 382.581Z" fill="#3D41B1" fill-opacity="0.87"/>
<path d="M775.804 382.581L787.315 322.73H797.592L786.218 382.581H775.804ZM789.062 306.149C789.061 304.361 789.76 302.644 791.008 301.363C792.256 300.083 793.955 299.342 795.742 299.297C796.581 299.276 797.416 299.43 798.192 299.75C798.968 300.07 799.668 300.548 800.249 301.155C800.829 301.761 801.277 302.482 801.563 303.271C801.848 304.06 801.966 304.9 801.909 305.738C801.909 306.655 801.726 307.563 801.368 308.408C801.011 309.253 800.488 310.018 799.83 310.657C799.172 311.296 798.392 311.796 797.537 312.128C796.682 312.46 795.769 312.617 794.852 312.59C794.035 312.589 793.227 312.417 792.481 312.085C791.735 311.752 791.068 311.266 790.522 310.659C789.976 310.052 789.564 309.336 789.312 308.559C789.061 307.782 788.975 306.961 789.062 306.149Z" fill="#3D41B1" fill-opacity="0.87"/>
<path d="M804.753 396.182C809.56 398.912 815.019 400.286 820.546 400.156C830.824 400.156 838.6 395.085 842.061 378.881L844.048 369.836H843.876C841.87 373.621 838.886 376.8 835.235 379.041C831.584 381.282 827.399 382.505 823.115 382.581C810.988 382.581 804.821 372.303 804.821 361.82C804.821 341.539 819.655 321.36 842.746 321.36C849.393 321.45 855.954 322.883 862.034 325.574L852.784 375.044C850.42 387.788 846.96 396.421 840.793 401.869C834.795 406.408 827.411 408.732 819.895 408.446C813.654 408.658 807.47 407.204 801.978 404.233L804.753 396.182ZM850.728 331.638C847.593 330.324 844.227 329.649 840.827 329.651C825.89 329.651 815.476 345.341 815.476 360.073C815.476 366.924 817.839 374.427 826.987 374.427C836.134 374.427 844.664 363.293 846.891 351.679L850.728 331.638Z" fill="#3D41B1" fill-opacity="0.87"/>
<path d="M932.436 294.775L919.246 363.533C918.067 369.831 917.244 376.19 916.779 382.581H907.358L908.968 370.727C903.521 379.258 895.984 383.951 887.454 383.951C875.84 383.951 869.536 374.427 869.536 362.162C869.536 340.887 885.364 321.36 906.502 321.36C910.146 321.336 913.758 322.047 917.122 323.45L922.432 294.775H932.436ZM915.306 332.117C912.394 330.273 908.987 329.365 905.542 329.513C891.188 329.513 880.054 344.861 880.054 360.826C880.054 367.986 882.52 375.523 891.325 375.523C899.239 375.523 908.729 366.513 911.332 353.015L915.306 332.117Z" fill="#3D41B1" fill-opacity="0.87"/>
<path d="M976.938 379.258C970.822 382.389 964.042 383.999 957.171 383.951C941.343 383.951 934.423 373.057 934.423 359.97C934.423 341.915 947.784 321.497 967.072 321.497C978.446 321.497 984.612 328.349 984.612 336.948C984.612 352.673 966.935 356.749 944.803 356.373C944.342 360.208 944.764 364.099 946.037 367.747C947.153 370.309 949.038 372.462 951.432 373.904C953.827 375.347 956.61 376.008 959.398 375.797C965.012 375.815 970.539 374.412 975.465 371.721L976.938 379.258ZM965.564 329.411C955.801 329.411 948.435 338.935 945.934 348.322C962.104 348.562 974.712 346.335 974.712 336.948C974.712 332.186 971.012 329.411 965.564 329.411V329.411Z" fill="#3D41B1" fill-opacity="0.87"/>
<path d="M1029.49 382.581L1019.21 299.229H1029.49L1035.73 352.741C1036.58 358.98 1037.12 365.257 1037.34 371.549H1037.71C1040.41 364.679 1043.46 357.955 1046.86 351.405L1073.34 299.331H1084.68L1040.8 382.683L1029.49 382.581Z" fill="#3D41B1" fill-opacity="0.87"/>
<path d="M1078.07 382.581L1085.37 344.005C1086.74 336.194 1087.73 328.28 1088.35 322.73H1097.39C1096.91 326.944 1096.4 331.124 1095.78 335.714H1096.16C1100 327.561 1106.44 321.36 1114.45 321.36C1115.45 321.385 1116.45 321.464 1117.43 321.6L1115.45 331.877C1114.51 331.732 1113.56 331.652 1112.6 331.638C1103.7 331.638 1095.78 342.395 1093.18 356.373L1088.25 382.718L1078.07 382.581Z" fill="#3D41B1" fill-opacity="0.87"/>
<path d="M1117.26 382.581L1128.77 322.73H1139.05L1127.68 382.581H1117.26ZM1130.62 306.149C1130.62 304.361 1131.32 302.644 1132.57 301.363C1133.82 300.083 1135.52 299.342 1137.3 299.297C1138.14 299.276 1138.98 299.43 1139.75 299.75C1140.53 300.07 1141.23 300.548 1141.81 301.155C1142.39 301.761 1142.84 302.482 1143.13 303.271C1143.41 304.06 1143.53 304.9 1143.47 305.738C1143.47 306.655 1143.29 307.563 1142.93 308.408C1142.57 309.253 1142.05 310.018 1141.39 310.657C1140.73 311.296 1139.95 311.796 1139.1 312.128C1138.24 312.46 1137.33 312.617 1136.41 312.59C1135.6 312.589 1134.79 312.417 1134.04 312.085C1133.3 311.752 1132.63 311.266 1132.08 310.659C1131.54 310.052 1131.13 309.336 1130.87 308.559C1130.62 307.782 1130.54 306.961 1130.62 306.149V306.149Z" fill="#3D41B1" fill-opacity="0.87"/>
<path d="M1188.73 379.258C1182.61 382.385 1175.83 383.995 1168.96 383.951C1153.13 383.951 1146.21 373.057 1146.21 359.97C1146.21 341.915 1159.54 321.497 1178.83 321.497C1190.2 321.497 1196.4 328.349 1196.4 336.948C1196.4 352.673 1178.72 356.749 1156.59 356.373C1156.1 360.208 1156.52 364.106 1157.83 367.747C1158.94 370.313 1160.82 372.468 1163.22 373.911C1165.61 375.354 1168.4 376.014 1171.19 375.797C1176.8 375.806 1182.32 374.404 1187.25 371.721L1188.73 379.258ZM1177.35 329.411C1167.59 329.411 1160.22 338.935 1157.69 348.322C1173.89 348.562 1186.5 346.335 1186.5 336.948C1186.47 332.186 1182.8 329.411 1177.35 329.411V329.411Z" fill="#3D41B1" fill-opacity="0.87"/>
<path d="M1201.71 382.581L1209.63 340.168C1210.96 333.316 1211.85 327.663 1212.47 322.73H1221.62L1220.14 334.481H1220.38C1222.64 330.58 1225.86 327.324 1229.73 325.027C1233.61 322.729 1238.01 321.466 1242.51 321.36C1249.67 321.36 1257.69 325.437 1257.69 337.941C1257.6 341.187 1257.24 344.419 1256.59 347.602L1249.74 382.581H1239.47L1246.04 347.945C1246.47 345.407 1246.71 342.843 1246.76 340.271C1246.76 334.344 1244.43 329.993 1237.38 329.993C1230.32 329.993 1219.7 338.798 1216.99 353.632L1211.54 382.683L1201.71 382.581Z" fill="#3D41B1" fill-opacity="0.87"/>
<path d="M1331.14 294.775L1318.06 363.533C1316.88 369.833 1316.05 376.191 1315.55 382.581H1306.17L1307.78 370.727H1307.54C1302.09 379.258 1294.55 383.951 1286.02 383.951C1274.41 383.951 1268.11 374.427 1268.11 362.162C1268.11 340.887 1283.93 321.36 1305.07 321.36C1308.72 321.336 1312.33 322.047 1315.69 323.45L1321 294.775H1331.14ZM1314.01 332.117C1311.1 330.263 1307.69 329.353 1304.25 329.513C1289.93 329.513 1278.79 344.861 1278.79 360.826C1278.79 367.986 1281.26 375.523 1290.03 375.523C1297.95 375.523 1307.47 366.513 1310.07 353.015L1314.01 332.117Z" fill="#3D41B1" fill-opacity="0.87"/>
<path d="M1375.64 379.258C1369.53 382.385 1362.75 383.995 1355.88 383.951C1340.05 383.951 1333.13 373.057 1333.13 359.97C1333.13 341.915 1346.49 321.497 1365.74 321.497C1377.15 321.497 1383.32 328.349 1383.32 336.948C1383.32 352.673 1365.64 356.749 1343.51 356.373C1343.03 360.208 1343.45 364.103 1344.74 367.747C1345.85 370.313 1347.74 372.468 1350.14 373.911C1352.53 375.354 1355.32 376.014 1358.1 375.797C1363.72 375.81 1369.24 374.408 1374.17 371.721L1375.64 379.258ZM1364.27 329.411C1354.51 329.411 1347.14 338.935 1344.61 348.322C1360.81 348.562 1373.42 346.335 1373.42 336.948C1373.42 332.186 1369.72 329.411 1364.27 329.411V329.411Z" fill="#3D41B1" fill-opacity="0.87"/>
<path d="M1388.59 382.581L1396.51 340.168C1397.88 333.316 1398.74 327.663 1399.35 322.73H1408.5L1407.03 334.481H1407.27C1409.52 330.58 1412.74 327.324 1416.62 325.027C1420.49 322.729 1424.89 321.466 1429.4 321.36C1436.56 321.36 1444.61 325.437 1444.61 337.941C1444.51 341.188 1444.13 344.42 1443.48 347.602L1436.8 382.581H1426.69L1433.13 347.945C1433.57 345.409 1433.81 342.844 1433.85 340.271C1433.85 334.344 1431.52 329.993 1424.46 329.993C1417.41 329.993 1406.79 338.798 1404.08 353.632L1398.87 382.581H1388.59Z" fill="#3D41B1" fill-opacity="0.87"/>
<path d="M1477.67 297.002C1473.13 307.263 1467.71 317.11 1461.46 326.43L1454.3 327.184C1459.04 317.844 1463.08 308.168 1466.4 298.235L1477.67 297.002Z" fill="#3D41B1" fill-opacity="0.87"/>
<path d="M1522.79 299.229L1516.11 334.344H1554.41L1561.26 299.229H1571.54L1555.71 382.581H1545.43L1552.73 343.388H1514.36L1506.96 382.581H1496.68L1512.51 299.229H1522.79Z" fill="#3D41B1" fill-opacity="0.87"/>
<path d="M1616.97 379.258C1610.85 382.389 1604.07 383.999 1597.2 383.951C1581.37 383.951 1574.45 373.057 1574.45 359.97C1574.45 341.915 1587.81 321.497 1607.1 321.497C1618.47 321.497 1624.64 328.349 1624.64 336.948C1624.64 352.673 1606.96 356.749 1584.83 356.373C1584.37 360.208 1584.79 364.099 1586.06 367.747C1587.18 370.313 1589.06 372.468 1591.46 373.911C1593.85 375.354 1596.64 376.014 1599.43 375.797C1605.04 375.815 1610.57 374.412 1615.49 371.721L1616.97 379.258ZM1605.59 329.411C1595.83 329.411 1588.46 338.935 1585.96 348.322C1602.13 348.562 1614.74 346.335 1614.74 336.948C1614.7 332.186 1611.04 329.411 1605.59 329.411V329.411Z" fill="#3D41B1" fill-opacity="0.87"/>
<path d="M1688.19 322.73L1680.14 365.143C1678.8 371.995 1678.05 377.648 1677.43 382.581H1668.29L1669.76 371.344H1669.52C1667.29 374.983 1664.22 378.03 1660.57 380.225C1656.91 382.42 1652.78 383.699 1648.52 383.951C1640.84 383.951 1632.69 380.251 1632.69 366.616C1632.73 363.163 1633.1 359.722 1633.79 356.338L1640.33 322.593H1650.61L1644.17 356.167C1643.57 359.054 1643.24 361.99 1643.17 364.937C1643.17 371.104 1645.67 375.215 1652.7 375.215C1659.72 375.215 1669.83 366.445 1672.12 353.323L1677.91 322.49L1688.19 322.73Z" fill="#3D41B1" fill-opacity="0.87"/>
<path d="M1695.49 372.2C1699.39 374.491 1703.81 375.764 1708.33 375.9C1715.19 375.9 1719.71 371.446 1719.71 366.136C1719.71 361.443 1717.62 358.599 1711.32 355.139C1704.46 351.302 1700.56 345.958 1700.56 339.791C1700.56 329.513 1709.57 321.36 1722.18 321.36C1726.53 321.231 1730.85 322.259 1734.68 324.34L1731.84 332.117C1728.69 330.368 1725.16 329.438 1721.56 329.411C1715.36 329.411 1710.9 333.248 1710.9 338.421C1710.9 342.772 1713.75 345.478 1719.19 348.459C1725.88 352.159 1730.33 357.469 1730.33 364.149C1730.33 376.757 1720.05 383.814 1707.58 383.814C1702.3 383.926 1697.1 382.51 1692.61 379.737L1695.49 372.2Z" fill="#3D41B1" fill-opacity="0.87"/>
<path d="M1804.53 294.775L1791.41 363.533C1790.27 369.836 1789.44 376.194 1788.95 382.581H1779.56L1781.14 370.727H1780.9C1778.77 374.61 1775.66 377.872 1771.89 380.191C1768.12 382.51 1763.81 383.806 1759.38 383.951C1747.77 383.951 1741.46 374.427 1741.46 362.162C1741.46 340.887 1757.29 321.36 1778.43 321.36C1782.07 321.332 1785.69 322.043 1789.05 323.45L1794.39 294.775H1804.53ZM1787.4 332.117C1784.49 330.273 1781.08 329.365 1777.64 329.513C1763.29 329.513 1752.15 344.861 1752.15 360.826C1752.15 367.986 1754.65 375.523 1763.42 375.523C1771.34 375.523 1780.86 366.513 1783.46 353.015L1787.4 332.117Z" fill="#3D41B1" fill-opacity="0.87"/>
<path d="M1849.04 379.258C1842.91 382.389 1836.12 383.999 1829.23 383.951C1813.41 383.951 1806.49 373.057 1806.49 359.97C1806.49 341.915 1819.85 321.497 1839.14 321.497C1850.51 321.497 1856.68 328.349 1856.68 336.948C1856.68 352.673 1839 356.749 1816.87 356.373C1816.4 360.211 1816.84 364.105 1818.13 367.747C1819.24 370.31 1821.12 372.464 1823.51 373.907C1825.9 375.351 1828.68 376.011 1831.46 375.797C1837.13 375.796 1842.71 374.345 1847.67 371.584L1849.04 379.258ZM1837.66 329.411C1827.9 329.411 1820.53 338.935 1818 348.322C1834.2 348.562 1846.81 346.335 1846.81 336.948C1846.81 332.186 1843.11 329.411 1837.66 329.411Z" fill="#3D41B1" fill-opacity="0.87"/>
<path d="M1862.02 382.581L1869.93 340.168C1871.27 333.316 1872.13 327.663 1872.78 322.73H1881.93L1880.42 334.481H1880.66C1882.92 330.584 1886.14 327.332 1890.01 325.035C1893.89 322.738 1898.29 321.473 1902.79 321.36C1909.98 321.36 1918 325.437 1918 337.941C1917.91 341.187 1917.54 344.419 1916.9 347.602L1910.05 382.581H1899.77L1906.32 347.945C1906.77 345.41 1907.02 342.845 1907.07 340.271C1907.07 334.344 1904.71 329.993 1897.68 329.993C1890.66 329.993 1880.01 338.798 1877.13 353.632L1871.68 382.683L1862.02 382.581Z" fill="#3D41B1" fill-opacity="0.87"/>
</svg>
